<svg xmlns="http://www.w3.org/2000/svg" width="20.29" height="26.164" viewBox="0 0 20.29 26.164">
  <g id="Brand_Logos" data-name="Brand Logos" transform="translate(-3.993 -1)">
    <path id="Path_6" data-name="Path 6" d="M20.939,14.6a6.169,6.169,0,0,1,2.693-5.1,5.726,5.726,0,0,0-4.558-2.659C17.133,6.63,15.287,8.07,14.3,8.07s-2.5-1.2-4.113-1.165a6.057,6.057,0,0,0-5.156,3.359c-2.2,4.1-.561,10.177,1.579,13.505,1.047,1.627,2.3,3.459,3.934,3.393,1.579-.067,2.176-1.1,4.083-1.1s2.444,1.1,4.113,1.064c1.7-.034,2.776-1.66,3.815-3.293a15.162,15.162,0,0,0,1.724-3.812A5.949,5.949,0,0,1,20.939,14.6Z" transform="translate(0 0)" fill="rgba(0,0,0,0.4)"/>
    <path id="Path_7" data-name="Path 7" d="M15.216,5.04A5.561,5.561,0,0,0,16.536,1a5.672,5.672,0,0,0-3.73,1.92l-.02.047a5.561,5.561,0,0,0-1.32,4.04,5.672,5.672,0,0,0,3.73-1.92Z" transform="translate(2.67)" fill="rgba(0,0,0,0.4)"/>
  </g>
</svg>
