<svg xmlns="http://www.w3.org/2000/svg" width="55" height="62.878" viewBox="0 0 55 62.878">
  <path id="captain" d="M52.507,43.837l-1.236-.456c-.013-.006-.022-.017-.036-.022s-.026,0-.039-.006L41.005,39.595,41,39.584l-3.641-3.641V31.375a6.977,6.977,0,0,0,1.1-1.9h.805a2.963,2.963,0,0,0,2.8-2.01l.646-1.958a2.955,2.955,0,0,0-.4-2.666,2.891,2.891,0,0,0-2.189-1.2l.15-.755a2.79,2.79,0,0,0,.34-.375l1.748-2.633c.014-.022.016-.047.029-.07l.021-.033a8.837,8.837,0,0,0,4.561-7.17C46.97,4.653,39.3-.011,29.5-.011S12.031,4.652,12.031,10.6a8.907,8.907,0,0,0,4.628,7.235.939.939,0,0,0,.192.064l1.54,2.487a2.667,2.667,0,0,0,.325.41c0,.01,0,.019,0,.028l.163.811a2.917,2.917,0,0,0-2.588,3.86l.646,1.959a2.964,2.964,0,0,0,2.8,2.015h.812a6.8,6.8,0,0,0,1.094,1.9v4.567L18,39.584,18,39.593,7.8,43.353c-.013,0-.026,0-.038.006s-.022.016-.035.021L6.5,43.835A6.869,6.869,0,0,0,2,50.276V61.885a.982.982,0,0,0,.982.982H56.018A.982.982,0,0,0,57,61.885V50.276a6.868,6.868,0,0,0-4.493-6.44Zm-8.4-1,5.529,2.039-.67,1.842L43.432,44.7ZM31.221,60.9H27.765l1.143-13.418a.973.973,0,0,0-.076-.47L27.676,44.33,29.5,42.4l1.8,1.909-1.308,2.668a.981.981,0,0,0-.1.529ZM29.357,15.411A26.9,26.9,0,0,1,40.01,17.865L38.978,19.42a1.073,1.073,0,0,1-.474.36,1.321,1.321,0,0,1-.163.05l-4.4.883a22.6,22.6,0,0,1-8.87,0l-4.338-.86a1.077,1.077,0,0,1-.265-.1.929.929,0,0,1-.39-.365l-1.226-1.98a26.325,26.325,0,0,1,10.5-2Zm-10.829.015A4.926,4.926,0,0,1,22.6,11l6.91-1.152L36.4,10.992a4.928,4.928,0,0,1,4.1,4.658l.01.279a28.879,28.879,0,0,0-11.114-2.483c-.161,0-.321,0-.481,0a28.883,28.883,0,0,0-10.383,1.983Zm2.406,6.468,3.758.745a24.667,24.667,0,0,0,4.825.479,24.543,24.543,0,0,0,4.813-.479l3.742-.753-1.223,6.153a5.056,5.056,0,0,1-1.888,2.988l-3.686,2.764a2.959,2.959,0,0,1-3.544,0l-3.686-2.763a4.921,4.921,0,0,1-1.871-2.968Zm5.621,13.473a4.889,4.889,0,0,0,2.936.98,4.977,4.977,0,0,0,2.956-.98l2.946-2.211v2.669L29.5,39.781l-5.893-3.955V33.157Zm4.455,5.768,5.243-3.52,2.663,2.663-4.483,4.483Zm8.92-17.554a.958.958,0,0,1,.786.4.983.983,0,0,1,.129.9l-.65,1.969a.993.993,0,0,1-.932.657h-.306l.781-3.929ZM13.995,10.6c0-4.689,7.1-8.651,15.505-8.651S45.005,5.916,45.005,10.6a6.306,6.306,0,0,1-2.578,4.718,6.893,6.893,0,0,0-5.709-6.268L29.672,7.881a1.009,1.009,0,0,0-.322,0L22.278,9.06a6.9,6.9,0,0,0-5.7,6.222A6.341,6.341,0,0,1,13.995,10.6ZM18.8,26.849l-.65-1.972a.974.974,0,0,1,.13-.891.957.957,0,0,1,.785-.4h.2l.79,3.929h-.322a.994.994,0,0,1-.933-.662Zm3.944,10.767,5.243,3.52-3.421,3.626-4.484-4.483ZM15.567,44.7,10.03,46.714l-.671-1.843,5.529-2.04Zm-11.6,5.578a4.9,4.9,0,0,1,3.207-4.6l.345-.127,1,2.757a.981.981,0,0,0,1.258.587l7.383-2.687a.982.982,0,0,0,.587-1.258l-1.018-2.8,1.79-.66,5.374,5.374a.983.983,0,0,0,.694.288H24.6a.98.98,0,0,0,.7-.309l.9-.958.722,1.677L25.794,60.9H15.75V55.992a.982.982,0,1,0-1.964,0V60.9H3.964ZM55.036,60.9H45.214V55.992a.982.982,0,1,0-1.964,0V60.9H33.2L31.88,47.591l.863-1.757.954,1.011a.978.978,0,0,0,.7.309h.013a.982.982,0,0,0,.695-.288l5.373-5.373,1.79.66-1.017,2.8a.981.981,0,0,0,.587,1.258l7.383,2.688a.982.982,0,0,0,1.258-.587l1-2.757.349.129a4.9,4.9,0,0,1,3.2,4.6Z" transform="translate(-2 0.011)"/>
</svg>
