<svg xmlns="http://www.w3.org/2000/svg" width="24.01" height="24.007" viewBox="0 0 24.01 24.007">
  <g id="layer1" transform="translate(-2 -1023.359)">
    <g id="g6947" transform="translate(2 1023.359)">
      <path id="path4980" d="M14.167,1023.36a12,12,0,1,0,11.843,12H26v-1.333H15.337v3.556h6.952a8.579,8.579,0,1,1-2.222-8.286l2.427-2.426a11.989,11.989,0,0,0-7.315-3.454c-.336-.033-.674-.052-1.012-.057Z" transform="translate(-2 -1023.359)" fill="#ea4335" fill-rule="evenodd"/>
      <path id="path4982" d="M5.874,1039.76,3.1,1042.178c2.171,5.842,7.607,9.163,13.018,7.92a11.374,11.374,0,0,0,6.312-4.111l-2.616-2.416a8.072,8.072,0,0,1-4.347,2.742c-3.918.9-7.817-1.507-9.345-5.77-.093-.259-.175-.521-.247-.783Z" transform="translate(-2 -1026.356)" fill="#34a853" fill-rule="evenodd"/>
      <path id="path4984" d="M4.5,1029.03a13.532,13.532,0,0,0-1.47,12.992c.042.1.128.3.128.3,1.354-.782,2.354-1.468,3.306-2.116-.043-.114-.087-.235-.116-.322a9.625,9.625,0,0,1,1.184-8.467c-2.02-1.563-2.02-1.563-3.032-2.385Z" transform="translate(-2 -1024.598)" fill="#fbbc05" fill-rule="evenodd"/>
      <path id="path4986" d="M17,1035.36v4h7.82a9.609,9.609,0,0,1-2.416,4.219l3.021,2.416a13.481,13.481,0,0,0,3.58-9.135H29v-1.5H17Z" transform="translate(-4.998 -1025.556)" fill="#4788f4" fill-rule="evenodd"/>
      <path id="path4998" d="M14.167,1023.36a12,12,0,1,0,11.843,12H26v-1.333H15.337v3.556h6.952a8.579,8.579,0,1,1-2.222-8.286l2.427-2.426a11.989,11.989,0,0,0-7.315-3.454c-.336-.033-.674-.052-1.012-.057Z" transform="translate(-2 -1023.359)" fill="none" fill-rule="evenodd"/>
      <path id="path5000" d="M4.5,1028.93l2.6,2.323m12.75,11.409,2.561,2.292" transform="translate(-2 -1024.474)" fill="none" fill-rule="evenodd"/>
      <path id="path5002" d="M6.385,1039.92l-3.345,2.505" transform="translate(-2 -1025.385)" fill="none" fill-rule="evenodd"/>
    </g>
  </g>
</svg>
