<svg id="yacht-quick" xmlns="http://www.w3.org/2000/svg" width="50.75" height="58.255" viewBox="0 0 50.75 58.255">
  <g id="g5882" transform="translate(0 0)">
    <g id="g4888" transform="translate(0 0)">
      <path id="rect6378-3-4" d="M-24.006,1015.88a.939.939,0,0,0-.94.939v4.711h-4.7a.94.94,0,0,0-.94.94v4.7h-4.7a.94.94,0,0,0-.94.94v8.808c0,.021,0,.041,0,.062l-10.665,3.906a.94.94,0,0,0-.533.5.942.942,0,0,0-.017.73l8.756,22.145a6.562,6.562,0,0,1-1.733-1.01.941.941,0,0,0-1.324.131.94.94,0,0,0,.13,1.323,8.439,8.439,0,0,0,10.056.459,8.427,8.427,0,0,0,9.395,0,8.419,8.419,0,0,0,9.4,0,8.437,8.437,0,0,0,10.092-.481.939.939,0,0,0,.29-1.06.94.94,0,0,0-.914-.611.937.937,0,0,0-.576.224,6.544,6.544,0,0,1-1.659.984l8.708-21.873a.94.94,0,0,0-.543-1.226l-10.669-4.01v-8.994a.94.94,0,0,0-.94-.94h-4.7v-4.7a.94.94,0,0,0-.94-.94h-4.7v-4.71a.94.94,0,0,0-.94-.94h-3.759Zm.94,1.879h1.88v3.653l-1.88-.04v-3.612Zm-5.639,5.65h13.154v3.763H-28.7v-3.763Zm-5.639,5.643h19.652a.9.9,0,0,0,.143,0h4.64v7.346l-11.869-4.461a.935.935,0,0,0-.367-.066.941.941,0,0,0-.275.051h-.03l-.059.023-11.836,4.336v-7.239Zm11.278,5.111v29.348a6.519,6.519,0,0,1-7.522.035.94.94,0,0,0-.881-.539.956.956,0,0,0-.209.033.942.942,0,0,0-.749.455,6.524,6.524,0,0,1-4.042,1.23l-8.866-22.406,22.27-8.157Zm1.88,0,22.27,8.371-8.815,22.145c-.005.012-.01.026-.015.039a6.526,6.526,0,0,1-4.064-1.186.941.941,0,0,0-.877-.528.929.929,0,0,0-.217.034.941.941,0,0,0-.72.441,6.524,6.524,0,0,1-7.563.069v-29.384Zm-10.283,32.6a.884.884,0,0,0-.11.018.939.939,0,0,0-.918.526,6.545,6.545,0,0,1-7.915-.29.94.94,0,0,0-.946-.186.939.939,0,0,0-.612.744.94.94,0,0,0,.365.892,8.439,8.439,0,0,0,10.055.459,8.427,8.427,0,0,0,9.395,0,8.419,8.419,0,0,0,9.4,0,8.437,8.437,0,0,0,10.092-.481.94.94,0,0,0,.29-1.06.941.941,0,0,0-.914-.611.939.939,0,0,0-.576.224,6.54,6.54,0,0,1-7.941.312.941.941,0,0,0-.881-.536q-.054.007-.106.019a.94.94,0,0,0-.9.51,6.532,6.532,0,0,1-7.511.019.939.939,0,0,0-.881-.536,1.08,1.08,0,0,0-.106.019.94.94,0,0,0-.9.511,6.525,6.525,0,0,1-7.5.026.94.94,0,0,0-.881-.547Zm0,3.763a.912.912,0,0,0-.228.038.941.941,0,0,0-.727.447,6.546,6.546,0,0,1-7.989-.238.94.94,0,0,0-1.323.13.94.94,0,0,0,.13,1.323,8.437,8.437,0,0,0,10.055.459,8.424,8.424,0,0,0,9.395,0,8.417,8.417,0,0,0,9.4,0,8.437,8.437,0,0,0,10.092-.48.941.941,0,0,0,.295-1.064.94.94,0,0,0-.919-.611.938.938,0,0,0-.576.224,6.54,6.54,0,0,1-7.933.315.94.94,0,0,0-.888-.54.949.949,0,0,0-.242.041.94.94,0,0,0-.687.429,6.525,6.525,0,0,1-7.581.07.939.939,0,0,0-.888-.539.913.913,0,0,0-.242.041.942.942,0,0,0-.686.429,6.526,6.526,0,0,1-7.566.081.939.939,0,0,0-.888-.551Z" transform="translate(47.5 -1015.88)" fill="rgba(0,0,0,0.8)"/>
    </g>
  </g>
</svg>
