<svg xmlns="http://www.w3.org/2000/svg" width="16.741" height="16.741" viewBox="0 0 16.741 16.741">
  <path id="b21743bd27446b402537e815c62aa968" d="M18.123,2.571a2.779,2.779,0,0,1,0,3.931L7.858,16.767a3.474,3.474,0,0,1-1.614.914l-3.184.8a.7.7,0,0,1-.843-.843l.8-3.184a3.474,3.474,0,0,1,.914-1.614L14.192,2.571A2.779,2.779,0,0,1,18.123,2.571ZM13.209,5.519l-8.3,8.3a2.085,2.085,0,0,0-.548.968l-.515,2.06,2.06-.515a2.085,2.085,0,0,0,.968-.548l8.3-8.3Zm1.965-1.965-.983.983L16.157,6.5l.983-.982a1.39,1.39,0,0,0-1.965-1.965Z" transform="translate(-2.196 -1.757)" fill="#212121"/>
</svg>
