<svg id="_8443103bd673d8aa33bc9aef2de0822b" data-name="8443103bd673d8aa33bc9aef2de0822b" xmlns="http://www.w3.org/2000/svg" width="27.233" height="37.889" viewBox="0 0 27.233 37.889">
  <path id="Path_11712" data-name="Path 11712" d="M32.581,28.293l-3.726,3.726L25.13,28.293l-.837.837,3.726,3.726-3.726,3.726.837.837,3.726-3.726,3.726,3.726.837-.837-3.726-3.726,3.726-3.726Z" transform="translate(-15.239 -11.543)" fill="#333"/>
  <path id="Path_11713" data-name="Path 11713" d="M27.815,2.368H25.576V0h-5.92V2.368H17.418l-.444,1.776H9V37.889H36.233V4.144H28.259ZM18.343,3.552h2.5V1.184h3.552V3.552h2.5L27.778,7.1H17.455l.888-3.552ZM35.049,5.328V36.7H10.184V5.328h6.494l-.74,2.96H29.295l-.74-2.96Z" transform="translate(-9)" fill="#333"/>
</svg>
