<svg id="_841403a7367743238c5e6b1fdfe417bf" data-name="841403a7367743238c5e6b1fdfe417bf" xmlns="http://www.w3.org/2000/svg" width="26.932" height="37.47" viewBox="0 0 26.932 37.47">
  <path id="Path_11716" data-name="Path 11716" d="M28.386,39.279l1.054,1.405H28.269c-2.308,0-4.1-2.518-4.1-4.684H23c0,2.764,2.253,5.855,5.269,5.855H29.44L28.386,43.26l1,.7L31.2,41.62v-.7l-1.815-2.342Z" transform="translate(-14.803 -14.923)"/>
  <path id="Path_11717" data-name="Path 11717" d="M31.927,24.508H30.756L31.81,23.1l-1-.7L29,24.742v.7l1.815,2.342.966-.7-1.025-1.406h1.171c2.308,0,4.1,2.518,4.1,4.684H37.2C37.2,27.6,34.943,24.508,31.927,24.508Z" transform="translate(-17.291 -9.285)"/>
  <path id="Path_11718" data-name="Path 11718" d="M27.607,2.342H25.393V0H19.538V2.342H17.325L16.886,4.1H9V37.47H35.932V4.1H28.046ZM18.239,3.513h2.47V1.171h3.513V3.513h2.47l.878,3.513H17.361ZM34.761,5.269V36.3H10.171V5.269h6.422L15.861,8.2H29.071l-.732-2.927Z" transform="translate(-9)"/>
</svg>
