<svg xmlns="http://www.w3.org/2000/svg" width="28" height="28" viewBox="0 0 28 28">
  <path id="b42757605ac311d8a548ba3e32940d43" d="M25.8,4.8H23V3.4a1.4,1.4,0,0,0-2.8,0V4.8H11.8V3.4A1.4,1.4,0,1,0,9,3.4V4.8H6.2A4.2,4.2,0,0,0,2,9V25.8A4.2,4.2,0,0,0,6.2,30H25.8A4.2,4.2,0,0,0,30,25.8V9a4.2,4.2,0,0,0-4.2-4.2Zm1.4,21a1.4,1.4,0,0,1-1.4,1.4H6.2a1.4,1.4,0,0,1-1.4-1.4V16H27.2Zm0-12.6H4.8V9A1.4,1.4,0,0,1,6.2,7.6H9V9a1.4,1.4,0,0,0,2.8,0V7.6h8.4V9A1.4,1.4,0,0,0,23,9V7.6h2.8A1.4,1.4,0,0,1,27.2,9Z" transform="translate(-2 -2)" fill="rgba(0,0,0,0.4)"/>
</svg>
