<svg xmlns="http://www.w3.org/2000/svg" width="39.35" height="57.236" viewBox="0 0 39.35 57.236">
  <path id="ee47538cf3b5865ca347bca87575e6bd" d="M39.878,8.943H35.316a4.472,4.472,0,0,0-4.38-3.577h-.894a5.366,5.366,0,0,0-10.732,0h-.894a4.471,4.471,0,0,0-4.38,3.576H9.472A4.472,4.472,0,0,0,5,13.415v39.35a4.472,4.472,0,0,0,4.472,4.472H39.878a4.472,4.472,0,0,0,4.472-4.472V13.415A4.472,4.472,0,0,0,39.878,8.943ZM18.415,7.155H20.2A.894.894,0,0,0,21.1,6.26V5.366a3.577,3.577,0,0,1,7.155,0V6.26a.894.894,0,0,0,.894.894h1.789a2.683,2.683,0,0,1,0,5.366H18.415a2.683,2.683,0,1,1,0-5.366Zm24.147,45.61a2.683,2.683,0,0,1-2.683,2.683H9.472a2.683,2.683,0,0,1-2.683-2.683V13.415a2.683,2.683,0,0,1,2.683-2.683h4.563a4.472,4.472,0,0,0,4.38,3.577h12.52a4.471,4.471,0,0,0,4.38-3.576h4.563a2.683,2.683,0,0,1,2.683,2.683ZM13.049,35.773H20.2a2.683,2.683,0,0,0,2.683-2.683V31.3a.894.894,0,1,0-1.789,0V33.09a.894.894,0,0,1-.894.894H13.049a.894.894,0,0,1-.894-.894V25.935a.894.894,0,0,1,.894-.894H20.2a.894.894,0,0,0,0-1.789H13.049a2.683,2.683,0,0,0-2.683,2.683V33.09A2.683,2.683,0,0,0,13.049,35.773ZM23.212,24.408,17.52,30.1l-2.114-2.114a.894.894,0,1,0-1.265,1.265L16.889,32a.894.894,0,0,0,1.265,0l6.325-6.323a.894.894,0,1,0-1.265-1.265Zm-1.22,22.1a.894.894,0,0,0-.894.894v1.789a.894.894,0,0,1-.894.894H13.049a.894.894,0,0,1-.894-.894V42.033a.894.894,0,0,1,.894-.894H20.2a.894.894,0,1,0,0-1.789H13.049a2.683,2.683,0,0,0-2.683,2.683v7.155a2.683,2.683,0,0,0,2.683,2.683H20.2a2.683,2.683,0,0,0,2.683-2.683V47.4A.894.894,0,0,0,21.992,46.5Zm1.22-6L17.52,46.2l-2.114-2.114a.894.894,0,1,0-1.265,1.265l2.747,2.745a.894.894,0,0,0,1.265,0l6.325-6.323a.894.894,0,1,0-1.265-1.265Zm-4.8-20.83H29.147a.894.894,0,1,0,0-1.789H18.415a.894.894,0,1,0,0,1.789ZM38.09,26.83H27.358a.894.894,0,1,0,0,1.789H38.09a.894.894,0,0,0,0-1.789Zm0,3.577H27.358a.894.894,0,0,0,0,1.789H38.09a.894.894,0,0,0,0-1.789Zm0,12.52H27.358a.894.894,0,0,0,0,1.789H38.09a.894.894,0,0,0,0-1.789Zm0,3.577H27.358a.894.894,0,0,0,0,1.789H38.09a.894.894,0,0,0,0-1.789Z" transform="translate(-5)" fill="#0089d0"/>
</svg>
