<svg id="_92ae4698fbb6c3fb48a811e4841f40b9" data-name="92ae4698fbb6c3fb48a811e4841f40b9" xmlns="http://www.w3.org/2000/svg" width="22" height="16.867" viewBox="0 0 22 16.867">
  <path id="Path_3" data-name="Path 3" d="M22.633,22.867H1.367A.361.361,0,0,1,1,22.513V11.186a.367.367,0,0,1,.733,0V22.159H22.267V8.354a.367.367,0,0,1,.733,0V22.513A.361.361,0,0,1,22.633,22.867Z" transform="translate(-1 -6)" fill="rgba(117,117,117,0.5)"/>
  <path id="Path_4" data-name="Path 4" d="M1.367,20.867a.37.37,0,0,1-.292-.14.345.345,0,0,1,.071-.5l6.515-4.771a.375.375,0,0,1,.513.069.345.345,0,0,1-.071.5L1.588,20.8A.376.376,0,0,1,1.367,20.867Zm21.267,0a.372.372,0,0,1-.221-.072L15.86,16a.345.345,0,0,1-.071-.5.375.375,0,0,1,.513-.069l6.552,4.8a.345.345,0,0,1,.071.5A.368.368,0,0,1,22.633,20.867ZM12,16.8a2.186,2.186,0,0,1-1.363-.455L2.264,9.653A3.357,3.357,0,0,1,1,7.416V6.354A.361.361,0,0,1,1.367,6H22.633A.361.361,0,0,1,23,6.354V7.416a3.36,3.36,0,0,1-1.264,2.238l-8.373,6.689A2.183,2.183,0,0,1,12,16.8ZM1.733,6.708v.708a2.728,2.728,0,0,0,1,1.692L11.1,15.8a1.564,1.564,0,0,0,1.793,0l8.373-6.689a2.729,2.729,0,0,0,1-1.693V6.708Z" transform="translate(-1 -6)" fill="rgba(117,117,117,0.5)"/>
  <path id="Path_5" data-name="Path 5" d="M12,17.42a2.11,2.11,0,0,1-1.363-.481L2.264,9.863A3.608,3.608,0,0,1,1,7.5V6.374A.371.371,0,0,1,1.367,6H22.633A.371.371,0,0,1,23,6.374V7.5a3.611,3.611,0,0,1-1.264,2.367l-8.373,7.074A2.107,2.107,0,0,1,12,17.42ZM1.733,6.749V7.5a2.925,2.925,0,0,0,1,1.789L11.1,16.362a1.5,1.5,0,0,0,1.793,0l8.373-7.074a2.926,2.926,0,0,0,1-1.79V6.749Z" transform="translate(-1 -6)" fill="rgba(117,117,117,0.5)"/>
</svg>
