<svg xmlns="http://www.w3.org/2000/svg" width="15.06" height="19.598" viewBox="0 0 15.06 19.598">
  <path id="_2a5af8bf0662b25f85a7de63a49d24b4" data-name="2a5af8bf0662b25f85a7de63a49d24b4" d="M11.962,9.022a4.016,4.016,0,1,0-4.01-4.016,4.016,4.016,0,0,0,4.01,4.016Zm0-6.72a2.71,2.71,0,1,1-2.7,2.7A2.71,2.71,0,0,1,11.962,2.3Zm7.432,15.549c-.784,2.018-4.349,2.736-7.432,2.736s-6.648-.718-7.432-2.736A4.867,4.867,0,0,1,5.5,13.678a7.908,7.908,0,0,1,6.459-3.539,7.993,7.993,0,0,1,7.125,4.735A.653.653,0,1,1,17.9,15.4a6.772,6.772,0,0,0-5.936-3.957,6.589,6.589,0,0,0-5.374,2.971,3.716,3.716,0,0,0-.842,2.965c.431,1.1,3.043,1.9,6.217,1.9s5.786-.8,6.217-1.9a.653.653,0,0,1,1.215.47Z" transform="translate(-4.362 -0.99)" fill="rgba(0,0,0,0.4)"/>
</svg>
