<svg xmlns="http://www.w3.org/2000/svg" width="18" height="21.484" viewBox="0 0 18 21.484">
  <path id="_0294a4e5b5ffa7deacfb4046162768cb" data-name="0294a4e5b5ffa7deacfb4046162768cb" d="M12,10.755a1.385,1.385,0,1,0,1.385,1.385A1.385,1.385,0,0,0,12,10.755Zm0,2.077a.692.692,0,1,1,.692-.692.692.692,0,0,1-.692.692Zm8.157-8.4a15.955,15.955,0,0,1-4.479-1.546A16.009,16.009,0,0,1,13.03,1.15a1.718,1.718,0,0,0-2.11-.021A19.108,19.108,0,0,1,8.289,2.774,19.057,19.057,0,0,1,3.8,4.419,1.027,1.027,0,0,0,3,5.432V11.1a11.5,11.5,0,0,0,8.9,11.146.352.352,0,0,0,.1.014.356.356,0,0,0,.075-.008A11.5,11.5,0,0,0,21,11.1V5.454A1.034,1.034,0,0,0,20.157,4.437Zm.15,6.665A10.8,10.8,0,0,1,12,21.562,10.806,10.806,0,0,1,3.692,11.1V5.432a.339.339,0,0,1,.26-.334A19.753,19.753,0,0,0,8.608,3.389a19.8,19.8,0,0,0,2.725-1.7,1.027,1.027,0,0,1,1.261,0A16.727,16.727,0,0,0,15.357,3.5a16.631,16.631,0,0,0,4.674,1.612.338.338,0,0,1,.277.338ZM14.423,9.371h-.346V8.678a2.077,2.077,0,0,0-4.154,0v.692H9.577a1.038,1.038,0,0,0-1.038,1.038v3.462a1.038,1.038,0,0,0,1.038,1.038h4.846a1.038,1.038,0,0,0,1.038-1.038V10.409A1.038,1.038,0,0,0,14.423,9.371Zm-3.808-.692a1.385,1.385,0,0,1,2.769,0v.692H10.615Zm4.154,5.192a.346.346,0,0,1-.346.346H9.577a.346.346,0,0,1-.346-.346V10.409a.346.346,0,0,1,.346-.346h4.846a.346.346,0,0,1,.346.346Zm3.318-7.892a12.088,12.088,0,0,1-3.254-1.142,12.046,12.046,0,0,1-2.195-1.475,1.015,1.015,0,0,0-1.288-.026A14.371,14.371,0,0,1,9.143,4.748,14.383,14.383,0,0,1,5.867,5.965a1.031,1.031,0,0,0-.791,1.008v4.18A8.826,8.826,0,0,0,11.9,19.7a.356.356,0,0,0,.175.006,8.825,8.825,0,0,0,6.848-8.557V7a1.038,1.038,0,0,0-.836-1.018Zm.143,5.175A8.128,8.128,0,0,1,12,19.016a8.129,8.129,0,0,1-6.231-7.863V6.973a.341.341,0,0,1,.259-.334A15.119,15.119,0,0,0,9.461,5.362a15.1,15.1,0,0,0,2.314-1.479.333.333,0,0,1,.415.008,12.765,12.765,0,0,0,2.321,1.56A12.76,12.76,0,0,0,17.954,6.66.342.342,0,0,1,18.231,7Z" transform="translate(-3 -0.778)" fill="rgba(117,117,117,0.5)"/>
</svg>
