<svg id="stats_icons" data-name="stats icons" xmlns="http://www.w3.org/2000/svg" width="95.373" height="30.326" viewBox="0 0 95.373 30.326">
  <path id="fuel-pump" d="M1116.465,352.786a9.416,9.416,0,0,0-2.031-2.447,36.752,36.752,0,0,0-3.047-2.308v-4.247a.809.809,0,0,0-.785-.785h-12.787a.809.809,0,0,0-.785.785V370a.809.809,0,0,0,.785.785H1094.4V371.9h19.619V370.79H1110.6a.809.809,0,0,0,.785-.785V359.988l.185.092.369.185c.462.323.693,1.893.693,4.8V368.2a2.153,2.153,0,0,0,2.262,1.846,2.766,2.766,0,0,0,1.662-.554,1.742,1.742,0,0,0,.738-1.339V355.741A6.605,6.605,0,0,0,1116.465,352.786Zm-6.74.692h-11.033v-7.248h11.033Zm6.555,8.309v5.586a1.329,1.329,0,0,1-.415.969,1.306,1.306,0,0,1-.923.415c-.6,0-.969-.462-1.2-1.339l.046-.969.046-1.616c0-2.954-.323-4.662-.923-4.986l-.831-.554-.646-.462V349.6l1.985,2.123a6.354,6.354,0,0,1,.554,2.585v2.354a.914.914,0,0,0,.231.646,4.237,4.237,0,0,0,.923.554,2.52,2.52,0,0,1,.877.6,1.217,1.217,0,0,1,.323.739v2.585Z" transform="translate(-1094.4 -341.917)" fill="rgba(0,0,0,0.8)"/>
  <g id="battery" transform="translate(35.74 5.532)">
    <path id="Path_156" data-name="Path 156" d="M24.754,53.906H20.892V52.681a.4.4,0,0,0-.4-.4H17.727a.4.4,0,0,0-.4.4v1.225H7.833V52.681a.4.4,0,0,0-.4-.4H4.668a.4.4,0,0,0-.4.4v1.225H.4a.4.4,0,0,0-.4.4V56.88a.4.4,0,0,0,.4.4H24.754a.4.4,0,0,0,.4-.4V54.309A.4.4,0,0,0,24.754,53.906Z" transform="translate(0 -52.278)" fill="rgba(0,0,0,0.8)"/>
    <path id="Path_157" data-name="Path 157" d="M30.346,177.767a.523.523,0,0,0,.522.523h20.69a.523.523,0,0,0,.522-.523V165.4H30.346Zm8.395-5.339,1.224-3.912a.161.161,0,0,1,.154-.113h1.909a.161.161,0,0,1,.153.211l-.745,2.3h2.1a.161.161,0,0,1,.135.248l-2.8,4.349a.161.161,0,0,1-.294-.113l.453-2.762h-2.13a.161.161,0,0,1-.154-.209Z" transform="translate(-28.635 -159.027)" fill="rgba(0,0,0,0.8)"/>
  </g>
  <g id="H2O" transform="translate(73.373)">
    <g id="Group_138" data-name="Group 138">
      <path id="Path_154" data-name="Path 154" d="M179.022,168.467a1.145,1.145,0,0,0-.618-.168,1.12,1.12,0,0,0-.457.093.993.993,0,0,0-.356.267,1.326,1.326,0,0,0-.242.463,2.193,2.193,0,0,0-.092.659,2.252,2.252,0,0,0,.092.668,1.317,1.317,0,0,0,.251.474,1.034,1.034,0,0,0,.363.274A1.164,1.164,0,0,0,179,171.13a1.1,1.1,0,0,0,.42-.49,2.008,2.008,0,0,0,.163-.859,2.031,2.031,0,0,0-.151-.819A1.069,1.069,0,0,0,179.022,168.467Z" transform="translate(-163.32 -151.114)" fill="rgba(0,0,0,0.8)"/>
      <path id="Path_155" data-name="Path 155" d="M52.487.3a1,1,0,0,0-.72-.3,1.009,1.009,0,0,0-.718.3C50.629.733,40.77,10.9,40.77,19.327a11,11,0,1,0,22,0C62.77,10.768,52.907.723,52.487.3ZM48.96,21.032a.593.593,0,0,1-.451.19.574.574,0,0,1-.451-.195.776.776,0,0,1-.164-.527V19.1H46.175v1.4a.754.754,0,0,1-.173.532.593.593,0,0,1-.451.19.574.574,0,0,1-.451-.195.776.776,0,0,1-.164-.527V16.857a.775.775,0,0,1,.162-.526.575.575,0,0,1,.453-.193.6.6,0,0,1,.453.188.753.753,0,0,1,.172.531V18.03h1.719V16.857a.765.765,0,0,1,.167-.527.578.578,0,0,1,.448-.192.6.6,0,0,1,.453.188.753.753,0,0,1,.172.531V20.5h0A.754.754,0,0,1,48.96,21.032Zm3.758,2.61a.437.437,0,0,1-.33.123H50.739a.5.5,0,0,1-.369-.137.45.45,0,0,1-.139-.326.69.69,0,0,1,.074-.277.908.908,0,0,1,.16-.251c.2-.208.384-.389.545-.538a3.572,3.572,0,0,1,.361-.3,1.827,1.827,0,0,0,.28-.239.9.9,0,0,0,.159-.229.492.492,0,0,0,.05-.206.335.335,0,0,0-.047-.178.323.323,0,0,0-.128-.12.385.385,0,0,0-.185-.045.374.374,0,0,0-.335.189,1.234,1.234,0,0,0-.059.151.909.909,0,0,1-.145.277.383.383,0,0,1-.311.136.4.4,0,0,1-.293-.118.419.419,0,0,1-.118-.309,1,1,0,0,1,.081-.381,1.08,1.08,0,0,1,.24-.354,1.179,1.179,0,0,1,.4-.254,1.5,1.5,0,0,1,.552-.095,1.594,1.594,0,0,1,.646.12,1.037,1.037,0,0,1,.324.232,1.077,1.077,0,0,1,.292.736,1.109,1.109,0,0,1-.16.584,1.726,1.726,0,0,1-.31.39c-.1.088-.257.222-.486.409-.147.121-.264.223-.347.305h.848a.572.572,0,0,1,.36.1.385.385,0,0,1,.15.314A.412.412,0,0,1,52.718,23.641ZM58.133,19.7a2.271,2.271,0,0,1-.466.814,2.061,2.061,0,0,1-.769.531,2.96,2.96,0,0,1-2.053-.005,2.085,2.085,0,0,1-.771-.532,2.267,2.267,0,0,1-.465-.821,3.258,3.258,0,0,1-.154-1.015,3.151,3.151,0,0,1,.161-1.027,2.256,2.256,0,0,1,.475-.811,2.075,2.075,0,0,1,.761-.515,2.7,2.7,0,0,1,1-.176,2.629,2.629,0,0,1,1.309.311,2.048,2.048,0,0,1,.842.894,2.991,2.991,0,0,1,.28,1.33A3.25,3.25,0,0,1,58.133,19.7Z" transform="translate(-40.77 0)" fill="rgba(0,0,0,0.8)"/>
    </g>
  </g>
</svg>
