<svg xmlns="http://www.w3.org/2000/svg" width="45" height="56.461" viewBox="0 0 45 56.461">
  <path id="weather" d="M57.052,31.527a.827.827,0,0,0-.859.793l-.131,3.3a.827.827,0,0,0,.793.859h.033a.827.827,0,0,0,.826-.794l.131-3.3A.827.827,0,0,0,57.052,31.527Zm7.667,1.407a.826.826,0,0,0-.859.793l-.131,3.3a.827.827,0,0,0,.793.859h.033a.827.827,0,0,0,.825-.794l.131-3.3a.827.827,0,0,0-.793-.859Zm18.733-.8a.828.828,0,0,0-.859.793l-.131,3.3a.827.827,0,0,0,.793.859h.033a.827.827,0,0,0,.826-.794l.131-3.3A.827.827,0,0,0,83.452,32.137Zm11.061-.8a.826.826,0,0,0-.859.793l-.131,3.3a.827.827,0,0,0,.793.859h.033a.827.827,0,0,0,.826-.794l.131-3.3a.827.827,0,0,0-.793-.859Zm-38.247,16.7a.827.827,0,0,0-.859.793l-.131,3.3A.827.827,0,0,0,56.07,53H56.1a.827.827,0,0,0,.826-.794l.131-3.3A.827.827,0,0,0,56.266,48.046Zm15.383,3.612a.826.826,0,0,0-.859.793l-.131,3.3a.827.827,0,0,0,.793.859h.033a.827.827,0,0,0,.826-.794l.131-3.3a.827.827,0,0,0-.793-.859Zm6.724-4.409a.826.826,0,0,0-.859.793l-.131,3.3a.827.827,0,0,0,.793.859h.033a.827.827,0,0,0,.825-.794l.131-3.3a.827.827,0,0,0-.793-.859Zm7.6,2.51a.826.826,0,0,0-.859.793l-.131,3.3a.827.827,0,0,0,.793.859h.033a.827.827,0,0,0,.826-.794l.131-3.3a.827.827,0,0,0-.793-.859Zm7.754-.8a.827.827,0,0,0-.859.793l-.131,3.3a.827.827,0,0,0,.793.859h.033a.827.827,0,0,0,.826-.794l.131-3.3a.827.827,0,0,0-.793-.859ZM53.35,38.112a.826.826,0,0,0-.859.793l-.131,3.3a.827.827,0,0,0,.793.859h.033a.827.827,0,0,0,.826-.794l.131-3.3a.827.827,0,0,0-.793-.859Zm7.667,3.612a.825.825,0,0,0-.859.793l-.131,3.3a.827.827,0,0,0,.793.859h.033a.827.827,0,0,0,.826-.794l.131-3.3a.827.827,0,0,0-.793-.859Zm2.2,9.921a.826.826,0,0,0-.859.793l-.131,3.3a.827.827,0,0,0,.793.859h.033a.827.827,0,0,0,.826-.794l.131-3.3a.827.827,0,0,0-.793-.859ZM85.1,45.885a.827.827,0,0,0,.826-.794l.131-3.3a.827.827,0,1,0-1.652-.066l-.131,3.3a.827.827,0,0,0,.793.859H85.1Zm5.713-6.855a.827.827,0,0,0-.859.793l-.131,3.3a.827.827,0,0,0,.793.859h.033a.827.827,0,0,0,.826-.794l.131-3.3a.827.827,0,0,0-.793-.859Zm6.073-17.673A9.1,9.1,0,0,0,95.02,15.81,9.274,9.274,0,0,0,91.032,12.8,10.73,10.73,0,0,0,71.9,4.438a10.245,10.245,0,0,0-12.852,7.957,9.188,9.188,0,0,0,2.028,18.15h8.961l-3.362,2.6a.826.826,0,0,0-.118,1.2l4.4,5.062L66.014,51.134a.827.827,0,0,0,1.322.929l13.27-12.2a.827.827,0,0,0,.065-1.151L76.3,33.689,78,30.544h9.7a9.2,9.2,0,0,0,9.188-9.188Zm-17.99,17.83-9.882,9.088,3.666-8.7a.826.826,0,0,0-.138-.863l-4.165-4.79,4.361-3.374h3.384l-1.542,2.864a.827.827,0,0,0,.1.935Zm8.8-10.3H61.073A7.534,7.534,0,0,1,59.9,13.915a.827.827,0,0,0,.123-.03,8.544,8.544,0,0,1,2.174-.036.827.827,0,0,0,.184-1.643,10.22,10.22,0,0,0-1.587-.052A8.588,8.588,0,0,1,71.95,6.188h0l.038.014a8.545,8.545,0,0,1,2.066.938.827.827,0,0,0,.877-1.4,10.214,10.214,0,0,0-1.38-.722,9.043,9.043,0,0,1,6.923-3.207H80.6a9.077,9.077,0,0,1,8.69,11.237.837.837,0,0,0-.026.088,8.532,8.532,0,0,1-1.225,2.854.827.827,0,1,0,1.376.916,10.194,10.194,0,0,0,1.209-2.49A7.533,7.533,0,0,1,87.7,28.891Z" transform="translate(-51.884 -0.155)"/>
</svg>
