<svg xmlns="http://www.w3.org/2000/svg" width="25.5" height="29.739" viewBox="0 0 25.5 29.739"><g transform="translate(0.75 0.75)"><path d="M0,16.641v-.309A5.082,5.082,0,0,1,.85,13.764,6.876,6.876,0,0,0,2.535,10.5c0-.941,0-1.9.082-2.836C3.042,3.132,7.521,0,11.945,0h.11c4.424,0,8.9,3.132,9.341,7.662.082.941,0,1.9.068,2.836a7,7,0,0,0,1.685,3.28A4.951,4.951,0,0,1,24,16.331v.3A5.034,5.034,0,0,1,22.807,20a6.36,6.36,0,0,1-4.027,1.936,63.634,63.634,0,0,1-13.574,0A6.429,6.429,0,0,1,1.179,20,5.088,5.088,0,0,1,0,16.641Zm8.547,9.974a4.356,4.356,0,0,0,6.054.712,4.078,4.078,0,0,0,.74-.712" transform="translate(0 0)" fill="none" stroke="#200e32" stroke-linecap="round" stroke-linejoin="round" stroke-width="1.5" fill-rule="evenodd"/></g></svg>