<svg xmlns="http://www.w3.org/2000/svg" width="30" height="27" viewBox="0 0 30 27"><path d="M21.3,0A8.763,8.763,0,0,1,30,8.768h0V10.96l-.01.145a1.064,1.064,0,0,1-1.052.924h0L28.925,12l-.167-.013a1.059,1.059,0,0,1-.583-.3,1.073,1.073,0,0,1-.311-.756h0V8.768A6.659,6.659,0,0,0,21.3,2.152H8.7A6.659,6.659,0,0,0,2.136,8.768h0v9.463A6.659,6.659,0,0,0,8.7,24.848H21.3a6.659,6.659,0,0,0,6.568-6.616,1.074,1.074,0,0,1,2.136,0A8.763,8.763,0,0,1,21.3,27H8.7A8.75,8.75,0,0,1,0,18.232H0V8.768A8.736,8.736,0,0,1,8.7,0H21.3ZM6.442,8.08a1.043,1.043,0,0,1,.776.233h0l6.236,4.972a2.137,2.137,0,0,0,2.654,0h0l6.17-4.972h.013l.13-.089a1.067,1.067,0,0,1,1.2,1.76h0l-6.17,4.986a4.261,4.261,0,0,1-5.374,0h0L5.891,9.985l-.114-.109a1.089,1.089,0,0,1-.045-1.4A1.046,1.046,0,0,1,6.442,8.08Z" fill="#333"/></svg>