<svg xmlns="http://www.w3.org/2000/svg" width="15.35" height="18.66" viewBox="0 0 15.35 18.66"><defs><style>.a{fill:none;stroke:#000;}</style></defs><path class="a" d="M17.366,5.583,16.25,3.914a1.071,1.071,0,0,0-.917-.539H5.767a1.071,1.071,0,0,0-.917.539L3.734,5.583a1.954,1.954,0,0,0-.359,1.226V19.073A1.813,1.813,0,0,0,4.97,21.035H16.131a1.813,1.813,0,0,0,1.594-1.962V6.809A1.953,1.953,0,0,0,17.366,5.583ZM10.55,17.6,6.165,12.2h2.79V10.243h3.189V12.2h2.79ZM5.049,5.337l.638-.981h9.567l.758.981Z" transform="translate(-2.875 -2.875)"/></svg>