<svg xmlns="http://www.w3.org/2000/svg" width="12" height="14.769" viewBox="0 0 12 14.769"><path d="M5.422,6.543v9.231a.926.926,0,0,0,.923.923h8.308a.926.926,0,0,0,.923-.923V6.543H5.422Zm2.769,8.308H7.268V8.39h.923Zm1.846,0H9.114V8.39h.923Zm1.846,0H10.96V8.39h.923Zm1.846,0h-.923V8.39h.923ZM15.806,3.774h-3V2.62a.694.694,0,0,0-.692-.692H8.883a.694.694,0,0,0-.692.692V3.774h-3a.694.694,0,0,0-.692.692V5.62h12V4.466A.694.694,0,0,0,15.806,3.774Zm-3.923,0H9.114V2.863h2.769v.912Z" transform="translate(-4.499 -1.928)" fill="#333"/></svg>