<svg xmlns="http://www.w3.org/2000/svg" width="18.202" height="18.625" viewBox="0 0 18.202 18.625"><g transform="translate(-951.498 -531.25)"><g transform="translate(952.06 531.824)"><path d="M20.475,7.57A9.109,9.109,0,0,0,9.017,6.5l-.01-1.357a.413.413,0,0,0-.417-.41l-.827.006a.413.413,0,0,0-.41.416l.023,3.094a.826.826,0,0,0,.827.82h.006L11.3,9.05a.413.413,0,0,0,.41-.417l-.006-.827a.413.413,0,0,0-.416-.41l-.526,0a7.436,7.436,0,0,1,10.121,9.683.409.409,0,0,0,.18.537L21.8,18a.42.42,0,0,0,.571-.193A9.063,9.063,0,0,0,20.475,7.57Zm-.493,11.454h-.006l-3.094.023a.413.413,0,0,0-.41.417l.006.827a.413.413,0,0,0,.416.41l.525,0A7.436,7.436,0,0,1,7.3,11.013a.409.409,0,0,0-.18-.537L6.38,10.1a.42.42,0,0,0-.571.193,9.1,9.1,0,0,0,13.359,11.3l.01,1.358a.413.413,0,0,0,.417.41l.827-.006a.413.413,0,0,0,.41-.416l-.023-3.094A.826.826,0,0,0,19.982,19.024Z" transform="translate(-5.553 -5.31)"/></g></g></svg>