<svg xmlns="http://www.w3.org/2000/svg" width="24.922" height="19.367" viewBox="0 0 24.922 19.367"><defs><style>.a{fill:#333;}</style></defs><path class="a" d="M118.219,150.8h2.17a.4.4,0,1,0,0-.8h-2.17a.4.4,0,1,0,0,.8Zm0,2.453h5.139a.4.4,0,1,0,0-.8h-5.139a.4.4,0,1,0,0,.8Zm0,2.453h5.139a.4.4,0,1,0,0-.8h-5.139a.4.4,0,1,0,0,.8Zm0,2.453h5.139a.4.4,0,1,0,0-.8h-5.139a.4.4,0,1,0,0,.8ZM108.081,150.8h2.17a.4.4,0,1,0,0-.8h-2.17a.4.4,0,1,0,0,.8Zm0,2.453h5.139a.4.4,0,1,0,0-.8h-5.139a.4.4,0,1,0,0,.8Zm0,2.453h5.139a.4.4,0,1,0,0-.8h-5.139a.4.4,0,1,0,0,.8Zm0,2.453h5.139a.4.4,0,1,0,0-.8h-5.139a.4.4,0,1,0,0,.8Z" transform="translate(-103.259 -145.896)"/><path class="a" d="M44.475,85.631H42.757V85.2A2.143,2.143,0,0,0,40.693,83H35.338a1.964,1.964,0,0,0-.707.138l-1.752.678a1.161,1.161,0,0,1-.836,0l-1.752-.681A1.964,1.964,0,0,0,29.584,83H24.229a2.143,2.143,0,0,0-2.064,2.2v.426H20.447a.468.468,0,0,0-.447.46v15.817a.467.467,0,0,0,.447.459H44.475a.467.467,0,0,0,.447-.459V86.091A.468.468,0,0,0,44.475,85.631ZM34.92,83.98a1.165,1.165,0,0,1,.418-.084h5.355A1.271,1.271,0,0,1,41.912,85.2V97.348a1.235,1.235,0,0,1-1.219,1.269H35.338a1.974,1.974,0,0,0-.707.146l-1.748.688v-14.7a1.993,1.993,0,0,0,.285-.088ZM23.01,85.2A1.271,1.271,0,0,1,24.229,83.9h5.355A1.165,1.165,0,0,1,30,83.98l1.752.678a2,2,0,0,0,.285.088v14.7l-1.748-.688a1.974,1.974,0,0,0-.707-.146H24.229a1.235,1.235,0,0,1-1.219-1.269Zm21.068,16.267H20.845V86.526h1.32V97.348a2.235,2.235,0,0,0,.607,1.538,1.986,1.986,0,0,0,1.457.627h5.355A1.176,1.176,0,0,1,30,99.6l1.752.682a1.95,1.95,0,0,0,1.414.005L34.92,99.6a1.174,1.174,0,0,1,.418-.091h5.355a1.986,1.986,0,0,0,1.457-.627,2.235,2.235,0,0,0,.607-1.538V86.526h1.32Z" transform="translate(-20 -83)"/></svg>