<svg xmlns="http://www.w3.org/2000/svg" width="68.29" height="68.29" viewBox="0 0 68.29 68.29"><path d="M65.7,5H12.588A7.61,7.61,0,0,0,5,12.588V65.7a7.61,7.61,0,0,0,7.588,7.588H65.7A7.61,7.61,0,0,0,73.29,65.7V12.588A7.61,7.61,0,0,0,65.7,5ZM12.588,70.255A4.566,4.566,0,0,1,8.035,65.7V59.48L26.246,39.828,55.535,70.255ZM70.255,65.7A4.566,4.566,0,0,1,65.7,70.255H59.708L37.855,47.492,54.7,29.964,70.255,46.733Zm0-23.446L55.838,26.7h0l-.076-.076c-.076,0-.076-.076-.152-.076a.265.265,0,0,0-.152-.076c-.076,0-.076-.076-.152-.076s-.076,0-.152-.076h-.911c-.076,0-.076,0-.152.076-.076,0-.076.076-.152.076s-.076.076-.152.076-.076.076-.152.076l-.076.076h0L35.731,45.291l-8.422-8.726h0a.074.074,0,0,1-.076-.076c-.076-.076-.076-.076-.152-.076a.265.265,0,0,0-.152-.076c-.076,0-.076-.076-.152-.076s-.076,0-.152-.076h-.911c-.076,0-.076,0-.152.076-.076,0-.076,0-.152.076-.076,0-.076.076-.152.076s-.076.076-.152.076a.074.074,0,0,0-.076.076h0L8.035,55V12.588a4.566,4.566,0,0,1,4.553-4.553H65.7a4.566,4.566,0,0,1,4.553,4.553ZM21.693,14.105a7.588,7.588,0,1,0,7.588,7.588A7.61,7.61,0,0,0,21.693,14.105Zm0,12.14a4.553,4.553,0,1,1,4.553-4.553A4.566,4.566,0,0,1,21.693,26.246Z" transform="translate(-5 -5)" fill="#0089d0"/></svg>