<svg xmlns="http://www.w3.org/2000/svg" width="46.417" height="46.417" viewBox="0 0 46.417 46.417"><path d="M46.26,5h-36.1A5.173,5.173,0,0,0,5,10.157v36.1a5.173,5.173,0,0,0,5.157,5.157h36.1a5.173,5.173,0,0,0,5.157-5.157v-36.1A5.173,5.173,0,0,0,46.26,5Zm-36.1,44.354A3.1,3.1,0,0,1,7.063,46.26V42.03L19.441,28.673,39.349,49.354Zm39.2-3.094a3.1,3.1,0,0,1-3.094,3.094H42.185L27.332,33.882l11.45-11.914,10.573,11.4Zm0-15.936-9.8-10.573h0L39.5,19.7c-.052,0-.052-.052-.1-.052a.18.18,0,0,0-.1-.052c-.052,0-.052-.052-.1-.052s-.052,0-.1-.052h-.619c-.052,0-.052,0-.1.052-.052,0-.052.052-.1.052s-.052.052-.1.052-.052.052-.1.052l-.052.052h0L25.888,32.386l-5.725-5.931h0a.051.051,0,0,1-.052-.052c-.052-.052-.052-.052-.1-.052a.18.18,0,0,0-.1-.052c-.052,0-.052-.052-.1-.052s-.052,0-.1-.052H19.08c-.052,0-.052,0-.1.052-.052,0-.052,0-.1.052-.052,0-.052.052-.1.052s-.052.052-.1.052a.051.051,0,0,0-.052.052h0L7.063,38.988V10.157a3.1,3.1,0,0,1,3.094-3.094h36.1a3.1,3.1,0,0,1,3.094,3.094ZM16.346,11.189A5.157,5.157,0,1,0,21.5,16.346,5.173,5.173,0,0,0,16.346,11.189Zm0,8.252a3.094,3.094,0,1,1,3.094-3.094A3.1,3.1,0,0,1,16.346,19.441Z" transform="translate(-5 -5)" fill="#0089d0"/></svg>