<svg xmlns="http://www.w3.org/2000/svg" width="37.831" height="59.899" viewBox="0 0 37.831 59.899"><path d="M234.519,67.2A11.831,11.831,0,0,0,222.7,79.025V97.94a11.822,11.822,0,0,0,23.644,0V79.025A11.831,11.831,0,0,0,234.519,67.2Zm0,3.152a8.617,8.617,0,0,1,8.67,8.67V97.94a8.67,8.67,0,0,1-17.34,0V79.025A8.617,8.617,0,0,1,234.519,70.355ZM217.2,90.059a1.64,1.64,0,0,0-1.6,1.6v6.305a18.893,18.893,0,0,0,17.339,18.842v7.143h-6.305a1.576,1.576,0,1,0,0,3.152H242.4a1.576,1.576,0,1,0,0-3.152H236.1v-7.143a18.893,18.893,0,0,0,17.339-18.842V91.66a1.576,1.576,0,1,0-3.152,0v6.305a15.763,15.763,0,1,1-31.526,0V91.66a1.638,1.638,0,0,0-1.551-1.6Z" transform="translate(-215.604 -67.203)" fill="#707070"/></svg>