<svg xmlns="http://www.w3.org/2000/svg" width="55" height="53.222" viewBox="0 0 55 53.222"><path d="M5.568,34.053a12.669,12.669,0,0,1,2.865-8.145,12.787,12.787,0,0,1,7.243-4.59,15.657,15.657,0,0,1,5.6-8.915,15.369,15.369,0,0,1,9.949-3.476A15.782,15.782,0,0,1,46.559,21.053h.849a13.172,13.172,0,0,1,6.58,1.725,12.937,12.937,0,0,1,6.58,11.276A13.119,13.119,0,0,1,54.307,45.3a12.48,12.48,0,0,1-6.368,1.884c-.345,0-.531-.159-.531-.451V43.207c0-.318.186-.478.531-.478a8.211,8.211,0,0,0,5.784-2.706,8.465,8.465,0,0,0,2.388-6,8.142,8.142,0,0,0-2.6-6,8.441,8.441,0,0,0-6.129-2.547H43.11c-.318,0-.478-.159-.478-.451l-.212-1.539a10.814,10.814,0,0,0-3.688-7.19,10.967,10.967,0,0,0-7.562-2.892A10.874,10.874,0,0,0,23.609,16.3,10.666,10.666,0,0,0,20,23.494L19.815,24.9a.469.469,0,0,1-.531.5l-1.406.08a8.867,8.867,0,0,0-5.572,2.839,8.1,8.1,0,0,0-2.255,5.731,8.465,8.465,0,0,0,2.388,6,8.211,8.211,0,0,0,5.784,2.706c.292,0,.451.159.451.478v3.529a.406.406,0,0,1-.451.451A12.923,12.923,0,0,1,9.2,43.154,12.552,12.552,0,0,1,5.568,34.053ZM19.762,51.8a1.81,1.81,0,0,1,.106-.531l4.325-15.309a2.143,2.143,0,0,1,.849-1.167,2.22,2.22,0,0,1,1.22-.4,2.974,2.974,0,0,1,.637.08,2,2,0,0,1,1.433.982,2.164,2.164,0,0,1,.212,1.778L24.22,52.44a2.088,2.088,0,0,1-2.176,1.7,1.128,1.128,0,0,1-.292-.053,1.717,1.717,0,0,0-.265-.08,2.205,2.205,0,0,1-1.3-.876A2.373,2.373,0,0,1,19.762,51.8Zm6.951,7.455L33.187,35.99a1.748,1.748,0,0,1,.8-1.167,2.4,2.4,0,0,1,1.3-.4A3.294,3.294,0,0,1,36,34.5a2.037,2.037,0,0,1,1.3,1.035,2.213,2.213,0,0,1,.186,1.7L31.038,60.532a1.928,1.928,0,0,1-.769,1.141,2.161,2.161,0,0,1-1.353.478,1.738,1.738,0,0,1-.663-.133,2.434,2.434,0,0,1-1.38-1.035A2.1,2.1,0,0,1,26.714,59.258Zm10.958-7.4a2.829,2.829,0,0,1,.106-.61L42.1,35.937a2.2,2.2,0,0,1,.8-1.167,2.155,2.155,0,0,1,1.22-.4,3.241,3.241,0,0,1,.69.08,2.061,2.061,0,0,1,1.22.822,2.236,2.236,0,0,1,.4,1.247,3.044,3.044,0,0,1-.053.371c-.027.159-.053.265-.053.318L42,52.413a1.959,1.959,0,0,1-.743,1.22,2.243,2.243,0,0,1-1.353.451l-.637-.133a2.146,2.146,0,0,1-1.22-.849A2.43,2.43,0,0,1,37.671,51.856Z" transform="translate(-5.568 -8.928)" fill="#939598"/></svg>