<svg xmlns="http://www.w3.org/2000/svg" width="55" height="55.052" viewBox="0 0 55 55.052"><path d="M5.244,32.3a2.187,2.187,0,0,1,.647-1.605,2.237,2.237,0,0,1,1.554-.621h5.282a1.962,1.962,0,0,1,1.5.647,2.433,2.433,0,0,1,.026,3.159,1.925,1.925,0,0,1-1.5.647H7.471a2.113,2.113,0,0,1-1.554-.647A2.154,2.154,0,0,1,5.244,32.3ZM12.65,50.245a2.4,2.4,0,0,1,.6-1.58l3.806-3.7a1.991,1.991,0,0,1,1.528-.6,2.193,2.193,0,0,1,1.554.6,1.936,1.936,0,0,1,.621,1.476,2.443,2.443,0,0,1-.621,1.657l-3.677,3.677a2.351,2.351,0,0,1-3.185,0A2.091,2.091,0,0,1,12.65,50.245Zm0-35.838a2.4,2.4,0,0,1,.6-1.58A2.487,2.487,0,0,1,14.9,12.18a2.177,2.177,0,0,1,1.528.621l3.7,3.806a2.01,2.01,0,0,1,.621,1.528,2.124,2.124,0,0,1-2.175,2.175,2.01,2.01,0,0,1-1.528-.621l-3.781-3.7A2.167,2.167,0,0,1,12.65,14.407Zm6.6,17.893a13.07,13.07,0,0,1,1.813-6.733,13.523,13.523,0,0,1,4.946-4.946A13.285,13.285,0,0,1,37.975,19.9a13.528,13.528,0,0,1,4.3,2.9,13.587,13.587,0,0,1,3.936,9.529A13.1,13.1,0,0,1,44.4,39.084,13.58,13.58,0,0,1,39.477,44,13.506,13.506,0,0,1,25.96,44a13.58,13.58,0,0,1-4.92-4.92A13.758,13.758,0,0,1,19.253,32.3Zm4.4,0a9.15,9.15,0,0,0,9.115,9.167A9.195,9.195,0,0,0,41.937,32.3a8.729,8.729,0,0,0-2.693-6.4,8.872,8.872,0,0,0-6.474-2.641A8.755,8.755,0,0,0,26.348,25.9,8.631,8.631,0,0,0,23.655,32.3Zm6.888,20.146a2.034,2.034,0,0,1,.647-1.554,2.193,2.193,0,0,1,1.554-.621,2.167,2.167,0,0,1,1.58.621,2.108,2.108,0,0,1,.621,1.554V57.6A2.187,2.187,0,0,1,34.3,59.2a2.113,2.113,0,0,1-1.554.647A2.073,2.073,0,0,1,31.19,59.2a2.187,2.187,0,0,1-.647-1.605V52.446Zm0-40.137V7.027a2.113,2.113,0,0,1,.647-1.554A2.154,2.154,0,0,1,32.77,4.8a2.073,2.073,0,0,1,1.554.647A2.113,2.113,0,0,1,34.971,7v5.308a1.962,1.962,0,0,1-.647,1.5,2.169,2.169,0,0,1-1.554.6,2.238,2.238,0,0,1-1.554-.6A2.038,2.038,0,0,1,30.543,12.309ZM44.837,46.438a2.034,2.034,0,0,1,2.046-2.046,2.193,2.193,0,0,1,1.554.6l3.781,3.7a2.254,2.254,0,0,1,.621,1.58,2.091,2.091,0,0,1-.621,1.528,2.306,2.306,0,0,1-3.107,0l-3.677-3.677A2.521,2.521,0,0,1,44.837,46.438Zm0-28.277a2.008,2.008,0,0,1,.6-1.528l3.677-3.806a2.177,2.177,0,0,1,1.528-.621,2.034,2.034,0,0,1,1.554.647,2.113,2.113,0,0,1,.647,1.554,2.186,2.186,0,0,1-.621,1.605l-3.781,3.7a2.284,2.284,0,0,1-1.554.621,1.881,1.881,0,0,1-1.45-.621A2.193,2.193,0,0,1,44.837,18.162ZM50.689,32.3a2.316,2.316,0,0,1,.621-1.605,2.016,2.016,0,0,1,1.476-.621h5.231a2.2,2.2,0,0,1,1.554,3.781,2.113,2.113,0,0,1-1.554.647H52.786a1.925,1.925,0,0,1-1.5-.647A2.238,2.238,0,0,1,50.689,32.3Z" transform="translate(-5.244 -4.8)" fill="#f88400"/></svg>