<svg xmlns="http://www.w3.org/2000/svg" width="14" height="14" viewBox="0 0 14 14">
  <path id="b21743bd27446b402537e815c62aa968" d="M15.516,2.438a2.324,2.324,0,0,1,0,3.287L6.931,14.31a2.905,2.905,0,0,1-1.35.764l-2.663.666a.581.581,0,0,1-.7-.7l.666-2.663a2.906,2.906,0,0,1,.764-1.35l8.584-8.584A2.324,2.324,0,0,1,15.516,2.438ZM11.406,4.9,4.466,11.844a1.744,1.744,0,0,0-.459.81l-.431,1.723L5.3,13.946a1.743,1.743,0,0,0,.81-.459l6.94-6.941ZM13.05,3.26l-.822.822,1.643,1.643.822-.822A1.162,1.162,0,0,0,13.05,3.26Z" transform="translate(-2.196 -1.757)" fill="#212121"/>
</svg>
