<svg id="df9ded271c2f0d065f6c69ef93def8bd" xmlns="http://www.w3.org/2000/svg" width="43.186" height="31.657" viewBox="0 0 43.186 31.657">
  <path id="Path_11710" data-name="Path 11710" d="M125.421,151.464h3.649a.732.732,0,0,0,0-1.464h-3.649a.732.732,0,0,0,0,1.464Zm0,4.483h8.64a.732.732,0,1,0,0-1.464h-8.64a.732.732,0,0,0,0,1.464Zm0,4.483h8.64a.732.732,0,1,0,0-1.464h-8.64a.732.732,0,0,0,0,1.464Zm0,4.483h8.64a.732.732,0,1,0,0-1.464h-8.64a.732.732,0,0,0,0,1.464Zm-17.043-13.45h3.648a.732.732,0,0,0,0-1.464h-3.648a.732.732,0,0,0,0,1.464Zm0,4.483h8.64a.732.732,0,0,0,0-1.464h-8.64a.732.732,0,0,0,0,1.464Zm0,4.483h8.64a.732.732,0,0,0,0-1.464h-8.64a.732.732,0,1,0,0,1.464Zm0,4.483h8.64a.732.732,0,0,0,0-1.464h-8.64a.732.732,0,0,0,0,1.464Z" transform="translate(-99.627 -143.87)" fill="#333"/>
  <path id="Path_11711" data-name="Path 11711" d="M62.411,87.3H59.434v-.7A3.6,3.6,0,0,0,55.858,83H46.578a3.584,3.584,0,0,0-1.225.225l-3.036,1.109a2.125,2.125,0,0,1-1.449,0l-3.036-1.112A3.582,3.582,0,0,0,36.607,83H27.328a3.6,3.6,0,0,0-3.577,3.6v.7H20.775a.787.787,0,0,0-.775.753v25.853a.786.786,0,0,0,.775.751H62.411a.786.786,0,0,0,.775-.751V88.053A.787.787,0,0,0,62.411,87.3ZM45.854,84.6a2.125,2.125,0,0,1,.725-.137h9.279A2.133,2.133,0,0,1,57.97,86.6v19.849a2.078,2.078,0,0,1-2.113,2.075H46.578a3.6,3.6,0,0,0-1.225.239l-3.029,1.125V85.855a3.611,3.611,0,0,0,.493-.144Zm-20.638,2a2.133,2.133,0,0,1,2.113-2.14h9.279a2.124,2.124,0,0,1,.725.137l3.036,1.109a3.614,3.614,0,0,0,.493.145V109.89l-3.028-1.124a3.6,3.6,0,0,0-1.225-.239H27.328a2.078,2.078,0,0,1-2.113-2.075Zm36.506,26.59H21.464V88.764h2.287v17.688a3.543,3.543,0,0,0,3.577,3.539h9.279a2.142,2.142,0,0,1,.725.15l3.036,1.115a3.569,3.569,0,0,0,2.45.009l3.036-1.125a2.139,2.139,0,0,1,.725-.149h9.279a3.543,3.543,0,0,0,3.577-3.539V88.764h2.287Z" transform="translate(-20 -83)" fill="#333"/>
</svg>
