<svg xmlns="http://www.w3.org/2000/svg" width="11" height="11" viewBox="0 0 11 11">
  <path id="b42757605ac311d8a548ba3e32940d43" d="M11.35,3.1h-1.1V2.55a.55.55,0,1,0-1.1,0V3.1H5.85V2.55a.55.55,0,1,0-1.1,0V3.1H3.65A1.65,1.65,0,0,0,2,4.75v6.6A1.65,1.65,0,0,0,3.65,13h7.7A1.65,1.65,0,0,0,13,11.35V4.75A1.65,1.65,0,0,0,11.35,3.1Zm.55,8.25a.55.55,0,0,1-.55.55H3.65a.55.55,0,0,1-.55-.55V7.5h8.8Zm0-4.95H3.1V4.75a.55.55,0,0,1,.55-.55h1.1v.55a.55.55,0,0,0,1.1,0V4.2h3.3v.55a.55.55,0,0,0,1.1,0V4.2h1.1a.55.55,0,0,1,.55.55Z" transform="translate(-2 -2)" fill="rgba(241,239,239,0.6)"/>
</svg>
