<svg xmlns="http://www.w3.org/2000/svg" xmlns:xlink="http://www.w3.org/1999/xlink" width="53" height="53" viewBox="0 0 53 53">
  <defs>
    <filter id="close-btn" x="0" y="0" width="53" height="53" filterUnits="userSpaceOnUse">
      <feOffset dy="3" input="SourceAlpha"/>
      <feGaussianBlur stdDeviation="3" result="blur"/>
      <feFlood flood-opacity="0.239"/>
      <feComposite operator="in" in2="blur"/>
      <feComposite in="SourceGraphic"/>
    </filter>
    <filter id="close-btn-2" x="0" y="0" width="53" height="53" filterUnits="userSpaceOnUse">
      <feOffset dy="3" input="SourceAlpha"/>
      <feGaussianBlur stdDeviation="3" result="blur-2"/>
      <feFlood flood-opacity="0.161" result="color"/>
      <feComposite operator="out" in="SourceGraphic" in2="blur-2"/>
      <feComposite operator="in" in="color"/>
      <feComposite operator="in" in2="SourceGraphic"/>
    </filter>
  </defs>
  <g data-type="innerShadowGroup">
    <g transform="matrix(1, 0, 0, 1, 0, 0)" filter="url(#close-btn)">
      <path id="close-btn-3" data-name="close-btn" d="M19.5,2A17.5,17.5,0,1,0,37,19.5,17.551,17.551,0,0,0,19.5,2Zm6.475,21.525a1.732,1.732,0,0,1-2.45,2.45L19.5,21.95l-4.025,4.025a1.732,1.732,0,0,1-2.45-2.45L17.05,19.5l-4.025-4.025a1.732,1.732,0,0,1,2.45-2.45L19.5,17.05l4.025-4.025a1.732,1.732,0,0,1,2.45,2.45L21.95,19.5Z" transform="translate(7 4)" fill="#333"/>
    </g>
    <g transform="matrix(1, 0, 0, 1, 0, 0)" filter="url(#close-btn-2)">
      <path id="close-btn-4" data-name="close-btn" d="M19.5,2A17.5,17.5,0,1,0,37,19.5,17.551,17.551,0,0,0,19.5,2Zm6.475,21.525a1.732,1.732,0,0,1-2.45,2.45L19.5,21.95l-4.025,4.025a1.732,1.732,0,0,1-2.45-2.45L17.05,19.5l-4.025-4.025a1.732,1.732,0,0,1,2.45-2.45L19.5,17.05l4.025-4.025a1.732,1.732,0,0,1,2.45,2.45L21.95,19.5Z" transform="translate(7 4)" fill="#fff"/>
    </g>
  </g>
</svg>
