<svg xmlns="http://www.w3.org/2000/svg" width="22.455" height="22.455" viewBox="0 0 22.455 22.455">
  <path id="Icon_ionic-ios-close-circle" data-name="Icon ionic-ios-close-circle" d="M14.6,3.375A11.228,11.228,0,1,0,25.83,14.6,11.226,11.226,0,0,0,14.6,3.375Zm2.845,15.292L14.6,15.822l-2.845,2.845a.863.863,0,1,1-1.22-1.22L13.383,14.6l-2.845-2.845a.863.863,0,0,1,1.22-1.22L14.6,13.383l2.845-2.845a.863.863,0,1,1,1.22,1.22L15.822,14.6l2.845,2.845a.867.867,0,0,1,0,1.22A.857.857,0,0,1,17.447,18.667Z" transform="translate(-3.375 -3.375)" fill="#fff"/>
</svg>
