<svg xmlns="http://www.w3.org/2000/svg" width="15.079" height="15.079" viewBox="0 0 15.079 15.079">
  <path id="Icon_metro-warning" data-name="Icon metro-warning" d="M10.11,3.294l6.319,12.594H3.791L10.11,3.294Zm0-1.366a1.09,1.09,0,0,0-.9.657L2.777,15.413c-.493.877-.074,1.594.932,1.594h12.8c1.006,0,1.425-.717.932-1.594h0L11.007,2.586A1.09,1.09,0,0,0,10.11,1.928Zm.942,12.252a.942.942,0,1,1-.942-.942A.942.942,0,0,1,11.053,14.18Zm-.942-1.885a.942.942,0,0,1-.942-.942V8.525a.942.942,0,0,1,1.885,0v2.827A.942.942,0,0,1,10.11,12.295Z" transform="translate(-2.571 -1.928)" fill="#ffc000"/>
</svg>
