<svg xmlns="http://www.w3.org/2000/svg" width="23.559" height="23.566" viewBox="0 0 23.559 23.566">
  <g id="Icon_ionic-md-photos" data-name="Icon ionic-md-photos" transform="translate(-3.375 -9.066)">
    <path id="Path_11689" data-name="Path 11689" d="M23.244,25.333V10.285a2.416,2.416,0,0,0-2.41-2.41H5.785a2.416,2.416,0,0,0-2.41,2.41V25.339a2.416,2.416,0,0,0,2.41,2.41H20.839A2.424,2.424,0,0,0,23.244,25.333Zm-13.7-6.621L12.1,22.325l3.765-5.419,4.967,7.225H5.785Z" transform="translate(0 4.883)"/>
    <path id="Path_11690" data-name="Path 11690" d="M26.379,3.375H10.43A2.561,2.561,0,0,0,7.875,5.93v.317H23.507A2.561,2.561,0,0,1,26.062,8.8V24.434h.317a2.561,2.561,0,0,0,2.555-2.555V5.93A2.561,2.561,0,0,0,26.379,3.375Z" transform="translate(-2 5.691)"/>
  </g>
</svg>
