<svg xmlns="http://www.w3.org/2000/svg" width="18.286" height="18.414" viewBox="0 0 18.286 18.414">
  <path id="Icon_metro-alarm" data-name="Icon metro-alarm" d="M23.428,8.491l-4.2-3.525-1.175,1.4,4.2,3.525,1.175-1.4ZM10.518,6.36l-1.175-1.4-4.2,3.525,1.175,1.4,4.2-3.525Zm4.224,4.215H13.37v5.486l4.338,2.61.69-1.129-3.657-2.167v-4.8ZM14.28,6.918a8.229,8.229,0,1,0,8.233,8.229A8.223,8.223,0,0,0,14.28,6.918Zm0,14.629a6.4,6.4,0,1,1,6.4-6.4A6.4,6.4,0,0,1,14.285,21.547Z" transform="translate(-5.141 -4.961)" fill="#0089d0"/>
</svg>
