<svg xmlns="http://www.w3.org/2000/svg" width="25.157" height="19.263" viewBox="0 0 25.157 19.263"><path d="M24.754,53.906H20.892V52.681a.4.4,0,0,0-.4-.4H17.727a.4.4,0,0,0-.4.4v1.225H7.833V52.681a.4.4,0,0,0-.4-.4H4.668a.4.4,0,0,0-.4.4v1.225H.4a.4.4,0,0,0-.4.4V56.88a.4.4,0,0,0,.4.4H24.754a.4.4,0,0,0,.4-.4V54.309A.4.4,0,0,0,24.754,53.906Z" transform="translate(0 -52.278)" fill="#f26222"/><path d="M30.346,177.767a.523.523,0,0,0,.522.523h20.69a.523.523,0,0,0,.522-.523V165.4H30.346Zm8.395-5.339,1.224-3.912a.161.161,0,0,1,.154-.113h1.909a.161.161,0,0,1,.153.211l-.745,2.3h2.1a.161.161,0,0,1,.135.248l-2.8,4.349a.161.161,0,0,1-.294-.113l.453-2.762h-2.13a.161.161,0,0,1-.154-.209Z" transform="translate(-28.635 -159.027)" fill="#f26222"/></svg>