<svg xmlns="http://www.w3.org/2000/svg" width="22.911" height="24.492" viewBox="0 0 22.911 24.492"><g transform="translate(0 0)"><path d="M1116.479,351.294a8.47,8.47,0,0,0-2.033-2.074c-.785-.587-1.8-1.213-3.049-1.956v-3.6a.755.755,0,0,0-.785-.665h-12.8a.755.755,0,0,0-.785.665v22.223a.755.755,0,0,0,.785.665H1094.4v.939h19.631v-.939h-3.418a.755.755,0,0,0,.785-.665V357.4l.185.078.37.156c.462.274.693,1.6.693,4.069v2.66a2.1,2.1,0,0,0,2.263,1.565,3.112,3.112,0,0,0,1.663-.469,1.429,1.429,0,0,0,.739-1.135V353.8A4.978,4.978,0,0,0,1116.479,351.294Zm-6.744.587H1098.7v-6.143h11.04Zm6.558,7.042v4.734a1.051,1.051,0,0,1-.415.822,1.425,1.425,0,0,1-.924.352c-.6,0-.97-.391-1.2-1.135l.047-.822.046-1.37c0-2.5-.323-3.951-.924-4.225l-.832-.469-.647-.391v-7.825l1.986,1.8a4.688,4.688,0,0,1,.555,2.191v2a.711.711,0,0,0,.23.548,4.426,4.426,0,0,0,.924.47,2.555,2.555,0,0,1,.877.509.963.963,0,0,1,.324.626v2.191Z" transform="translate(-1094.4 -343)" fill="#b201ac"/></g></svg>