<svg id="group_bidding-offering-auction-offer-bid" data-name="group bidding-offering-auction-offer-bid" xmlns="http://www.w3.org/2000/svg" width="59.553" height="53.801" viewBox="0 0 59.553 53.801">
  <path id="Path_11695" data-name="Path 11695" d="M61.158,45.883,57.152,44.29a4.8,4.8,0,0,0-.07-2.508l-.138-.423a.913.913,0,0,0-.043-.109l-1.329-2.866a5.185,5.185,0,0,0-3.013-2.7l-7.2-2.46c-.068-.023-.142-.026-.212-.044v-8.2a10.144,10.144,0,1,0-5.83-.075v9.063L38.8,33.8a2.985,2.985,0,0,0-2.277.143,2.952,2.952,0,0,0-1.515,1.719,3,3,0,0,0-.086,1.568,3.04,3.04,0,0,0-.549.206,2.941,2.941,0,0,0-1.5,1.7A2.984,2.984,0,0,0,33,41.428a3.02,3.02,0,0,0,.312.5,3.014,3.014,0,0,0-.891,1.3,3.05,3.05,0,0,0,.442,2.749,2.874,2.874,0,0,0-.842,1.233l-.063.179a2.911,2.911,0,0,0,.154,2.236,2.85,2.85,0,0,0,1.653,1.443L38.2,52.587a2.375,2.375,0,0,0,.458.12l8.419,3.151,1.08.354A4.294,4.294,0,0,0,52.6,55.106l7.049,2.947a.988.988,0,1,0,.762-1.823L52.67,53a.99.99,0,0,0-1.215.38,2.318,2.318,0,0,1-2.684.959L41.455,51.65l.013-.02a2.624,2.624,0,0,0,.175-.264c.025-.041.055-.079.077-.121a2.776,2.776,0,0,0,.188-.428l.069-.189a2.884,2.884,0,0,0,.133-.679c0-.067,0-.133,0-.2a2.9,2.9,0,0,0-.034-.494c-.007-.04,0-.082-.009-.122a2.768,2.768,0,0,0,.675-.3c.032-.019.066-.033.1-.053l.016-.011h0l.024-.016.008-.005h0a2.109,2.109,0,0,0,.212-.154c.028-.023.063-.039.09-.064a1.561,1.561,0,0,0,.276-.264c.012-.013.016-.02.027-.031.055-.059.1-.112.13-.15l.078-.1c.031-.046.067-.1.1-.16l.213-.223v-.194c.021-.051.041-.1.059-.159a1.921,1.921,0,0,0,.122-.5,2.8,2.8,0,0,0,.045-.5,2.852,2.852,0,0,0-.3-1.294,2.9,2.9,0,0,0-.3-.5h0c.019-.016.036-.036.055-.053a4.747,4.747,0,0,0,3.238-3.034l.071-.207.2.068a6.181,6.181,0,0,0,1.425,5.924.988.988,0,1,0,1.384-1.411c-1.087-1.067-1.338-2.872-.671-4.828a.986.986,0,0,0-.616-1.253l-2.02-.689a.985.985,0,0,0-1.254.616h0l-.388,1.138A2.769,2.769,0,0,1,43,42.532l-.013.005a2.783,2.783,0,0,1-1.45-.085l-.208-.072,2.294-6.712.013-.038h0a.833.833,0,0,1,.12-.224.855.855,0,0,1,.549-.337.955.955,0,0,1,.413.033l7.2,2.46a3.189,3.189,0,0,1,1.857,1.662l1.3,2.808.111.34a2.757,2.757,0,0,1-.077,1.8l-.128.344a.989.989,0,0,0,.561,1.262l4.876,1.94a.988.988,0,0,0,.731-1.836ZM34.3,43.877a1.023,1.023,0,0,1,.524-.6.983.983,0,0,1,.759-.041l1.856.631,3.369,1.15h0l.785.262a1.015,1.015,0,0,1,.587.533.941.941,0,0,1,.095.421.846.846,0,0,1-.014.15l-.056.2-.156.286h0l-.125.12c-.025.021-.063.047-.1.075a1.17,1.17,0,0,1-.967.1h-.032l-.582-.2-5.307-1.815a.974.974,0,0,1-.578-.527.946.946,0,0,1-.058-.745Zm-.111-28.621a8.157,8.157,0,1,1,9.6,8.021,7.92,7.92,0,0,1-2.152.1q-.365-.034-.725-.1a8.12,8.12,0,0,1-6.726-8.021Zm7.1,10.072h.074c.163.017.33.022.5.03.143.007.285.019.43.019h.058c.153,0,.3-.014.454-.02.122-.006.244,0,.366-.013v8.034a2.776,2.776,0,0,0-.491.323c-.047.038-.089.079-.134.12a2.762,2.762,0,0,0-.366.4c-.027.036-.057.068-.082.106a2.776,2.776,0,0,0-.266.492l-.539-.184Zm-4.4,10.963a.989.989,0,0,1,.507-.572,1.012,1.012,0,0,1,.776-.049l1.879.64,1.137.39-.662,1.911L37.5,37.576a1.011,1.011,0,0,1-.57-.511,1.024,1.024,0,0,1-.046-.774Zm-2.142,3.5a.993.993,0,0,1,.505-.579,1.022,1.022,0,0,1,.775-.049l3.865,1.323-.65,1.913-1.707-.581-2.168-.74a1,1,0,0,1-.574-.5,1.021,1.021,0,0,1-.046-.79Zm-.854,8.964a.928.928,0,0,1-.055-.712l.061-.174a.917.917,0,0,1,1.174-.575L39.474,48.8l.159.08h0a.872.872,0,0,1,.135.08,1.06,1.06,0,0,1,.11.088.926.926,0,0,1,.107.142.914.914,0,0,1,.084.137.83.83,0,0,1,.033.118.876.876,0,0,1,.045.209c0,.023-.007.046-.008.069a.927.927,0,0,1-.036.26l-.062.169a.968.968,0,0,1-.989.622.939.939,0,0,1-.184-.042L34.4,49.2a.878.878,0,0,1-.512-.448Zm-4.575.76a2.57,2.57,0,0,0-.658-1.014,2.3,2.3,0,0,0,.174-.288,2.617,2.617,0,0,0,.145-2.051,2.684,2.684,0,0,0-.7-1.063A2.6,2.6,0,0,0,26.9,41.068,2.645,2.645,0,0,0,23.42,38.14l-.221.076V30.951a8.666,8.666,0,1,0-5.208.065v6.633c-.025.008-.053.008-.078.017l-6.039,2.062a4.519,4.519,0,0,0-2.628,2.353l-1.114,2.4a.851.851,0,0,0-.043.109l-.124.381A4.162,4.162,0,0,0,7.879,47L2.842,49a.988.988,0,1,0,.731,1.836l5.9-2.344a.989.989,0,0,0,.56-1.264l-.115-.308a2.127,2.127,0,0,1-.061-1.368l1.184-2.643A2.533,2.533,0,0,1,12.509,41.6l6.035-2.061a.691.691,0,0,1,.27-.029h0a.559.559,0,0,1,.213.1.552.552,0,0,1,.232.281l.076.22L21.147,45.4l-.025.008a2.18,2.18,0,0,1-1.134.067l-.012-.005a2.165,2.165,0,0,1-1.616-1.424l-.327-.956h0a.988.988,0,0,0-1.255-.615l-1.7.579a.987.987,0,0,0-.615,1.254,3.685,3.685,0,0,1-.525,3.889.988.988,0,1,0,1.384,1.41,5.16,5.16,0,0,0,1.348-4.479A4.142,4.142,0,0,0,19.162,47.3a2.333,2.333,0,0,0-.142.253,2.587,2.587,0,0,0-.286,1.191,1.784,1.784,0,0,0,.029.354,1.915,1.915,0,0,0,.113.51c.018.055.037.107.057.157l.008.2.2.2c.02.033.04.063.059.092l.011.019c.015.021.062.081.078.1.03.038.075.092.125.144l.009.012c.009.01.02.017.029.027a.3.3,0,0,0,.031.031,1.816,1.816,0,0,0,.144.137c.015.012.027.029.042.04a1.54,1.54,0,0,0,.191.137c.026.017.058.046.079.058l.018.011c.013.007.021.017.034.024s.035.015.051.025a1.954,1.954,0,0,0,.232.134c.079.034.147.06.222.088.017.006.032.018.049.024v.043a2.617,2.617,0,0,0-.015.539v.038a2.512,2.512,0,0,0,.117.579l.01.028h0l.038.1a2.563,2.563,0,0,0,.262.536c.013.019.018.043.031.063l-5.028,1.9-.909.3a1.791,1.791,0,0,1-2.069-.74.991.991,0,0,0-1.215-.381l-6.5,2.716a.988.988,0,0,0,.762,1.824l5.82-2.433a3.76,3.76,0,0,0,3.815.891l8-2.951A2.014,2.014,0,0,0,24,54.23l3.74-1.277a2.551,2.551,0,0,0,1.485-1.293,2.6,2.6,0,0,0,.134-2.01Zm-2.641-1.836-.649.223h0l-3.593,1.23-.171.058-.537.179-.015.006h0a.8.8,0,0,1-.665-.063l-.149-.125-.157-.343c0-.044-.01-.089-.013-.106a.707.707,0,0,1,.456-.648l.668-.222h0l2.731-.932,1.659-.564a.656.656,0,0,1,.512.029.7.7,0,0,1,.357.4.67.67,0,0,1-.05.543.635.635,0,0,1-.384.335Zm.034-3.775a.68.68,0,0,1-.4.35l-1.861.636-1.239.421L22.762,44l3.092-1.058a.7.7,0,0,1,.534.033.685.685,0,0,1,.35.413.675.675,0,0,1-.032.512Zm-2.649-3.889a.7.7,0,0,1,.531.033.666.666,0,0,1,.343.384.69.69,0,0,1-.414.882l-2.393.82-.111-.319h0l-.336-.985,1.524-.522h0Zm-3.042-1.051c-.023-.05-.064-.086-.091-.134a2.584,2.584,0,0,0-.248-.363,2.7,2.7,0,0,0-.21-.231,2.487,2.487,0,0,0-.314-.244c-.064-.045-.116-.106-.185-.145V31.376h.149c.128.006.254.018.385.018.211,0,.414-.014.616-.028h.106V38.9ZM13.8,22.726a6.694,6.694,0,1,1,7.889,6.58,6.514,6.514,0,0,1-1.8.082,5.976,5.976,0,0,1-.6-.085A6.681,6.681,0,0,1,13.8,22.726ZM27.457,50.779a.6.6,0,0,1-.347.3L23.333,52.37c-.037.011-.075.015-.086.018a.636.636,0,0,1-.68-.449l-.039-.1a.629.629,0,0,1-.03-.23.412.412,0,0,1,.012-.059.621.621,0,0,1,.041-.155.5.5,0,0,1,.039-.068.628.628,0,0,1,.083-.114.642.642,0,0,1,.063-.054.616.616,0,0,1,.113-.068l3.811-1.317a.614.614,0,0,1,.786.391l.045.129A.634.634,0,0,1,27.457,50.779Z" transform="translate(-2.219 -5.083)"/>
  <path id="Path_11696" data-name="Path 11696" d="M41.268,20.289a.988.988,0,1,0,1.976,0v-.506a2.879,2.879,0,0,0-1.068-5.553.906.906,0,1,1,.906-.906.988.988,0,0,0,1.976,0,2.882,2.882,0,0,0-1.814-2.672v-.48a.988.988,0,1,0-1.976,0v.43a2.874,2.874,0,0,0,.908,5.6.906.906,0,1,1-.906.906.988.988,0,1,0-1.976,0,2.876,2.876,0,0,0,1.974,2.721ZM19.5,27.2a.988.988,0,1,0,1.976,0v-.333A2.595,2.595,0,0,0,20.417,21.9a.622.622,0,1,1,.622-.622.988.988,0,0,0,1.976,0,2.6,2.6,0,0,0-1.542-2.369V18.6a.988.988,0,1,0-1.976,0v.258a2.593,2.593,0,0,0,.92,5.02.622.622,0,1,1-.622.622.988.988,0,0,0-1.976,0A2.6,2.6,0,0,0,19.5,26.92Z" transform="translate(-2.219 -5.083)"/>
</svg>
