<svg id="de123ced56d05412fd761d94c630b7db" xmlns="http://www.w3.org/2000/svg" width="58.274" height="44.768" viewBox="0 0 58.274 44.768">
  <path id="Path_11666" data-name="Path 11666" d="M30.939,54.384a2,2,0,0,1-1.414-3.414l.354-.354a.5.5,0,1,1,.707.707l-.354.354a1,1,0,0,0,0,1.414,1.025,1.025,0,0,0,1.414,0L32,52.737a.5.5,0,0,1,.707.707l-.354.354A1.983,1.983,0,0,1,30.939,54.384Z" transform="translate(-2.863 -9.616)"/>
  <path id="Path_11667" data-name="Path 11667" d="M28.818,52.262A2,2,0,0,1,27.4,48.849l.353-.354a.5.5,0,1,1,.707.707l-.354.354a1,1,0,0,0,0,1.414,1.027,1.027,0,0,0,1.415,0l.354-.354a.5.5,0,1,1,.707.707l-.354.354A2,2,0,0,1,28.818,52.262Z" transform="translate(-2.863 -9.616)"/>
  <path id="Path_11668" data-name="Path 11668" d="M26.7,50.14a2,2,0,0,1-1.414-3.413l.354-.354a.5.5,0,1,1,.707.707l-.354.354A1,1,0,0,0,27.4,48.849l.353-.354a.5.5,0,1,1,.707.707l-.354.354A2,2,0,0,1,26.7,50.14Z" transform="translate(-2.863 -9.616)"/>
  <path id="Path_11669" data-name="Path 11669" d="M24.575,48.019a2,2,0,0,1-1.414-3.413l.354-.354a.5.5,0,0,1,.707.707l-.354.354a1,1,0,0,0,1.415,1.414l.354-.354a.5.5,0,0,1,.707.707l-.354.354A2,2,0,0,1,24.575,48.019ZM16.8,38.034a.5.5,0,0,1-.354-.146L6.9,28.342a.5.5,0,1,1,.707-.707L16.8,36.827l8.485-8.485-9.192-9.193a.5.5,0,0,1,.707-.707l9.546,9.546a.5.5,0,0,1,0,.708L17.15,37.888A.5.5,0,0,1,16.8,38.034Z" transform="translate(-2.863 -9.616)"/>
  <path id="Path_11670" data-name="Path 11670" d="M12.555,33.792a.5.5,0,0,1-.354-.146L3.009,24.454a.5.5,0,0,1,0-.707L12.2,14.555a.5.5,0,0,1,.707,0L22.1,23.747a.5.5,0,0,1,0,.707l-9.192,9.192A.5.5,0,0,1,12.555,33.792ZM4.069,24.1l8.485,8.485L21.04,24.1l-8.485-8.485ZM19.611,39.434a.5.5,0,0,1-.354-.146l-2.121-2.121a.5.5,0,0,1,0-.707l7.778-7.778a.5.5,0,0,1,.707,0L27.743,30.8a.5.5,0,0,1,0,.708l-7.778,7.778A.505.505,0,0,1,19.611,39.434ZM18.2,36.813l1.414,1.414,7.071-7.071-1.415-1.414Z" transform="translate(-2.863 -9.616)"/>
  <path id="Path_11671" data-name="Path 11671" d="M30.939,52.177a.5.5,0,0,1-.354-.146L19.272,40.717a1.5,1.5,0,0,1,0-2.122l7.778-7.778a.5.5,0,0,1,.707,0l1.268,1.268h2.622a.5.5,0,0,1,.354.146l.707.708a.5.5,0,0,1-.707.707l-.561-.562H28.818a.5.5,0,0,1-.354-.146L27.4,31.877,19.978,39.3a.5.5,0,0,0,0,.708L31.292,51.322a.5.5,0,0,1,0,.707A.492.492,0,0,1,30.939,52.177Z" transform="translate(-2.863 -9.616)"/>
  <path id="Path_11672" data-name="Path 11672" d="M33.768,54.383a1.993,1.993,0,0,1-1.414-.585l-2.49-2.489a.5.5,0,1,1,.707-.707l2.49,2.489a1,1,0,0,0,1.415-1.414l-2.49-2.49a.5.5,0,0,1,.707-.707l2.49,2.49a2,2,0,0,1-1.415,3.413Z" transform="translate(-2.863 -9.616)"/>
  <path id="Path_11673" data-name="Path 11673" d="M35.889,52.263a1.983,1.983,0,0,1-1.414-.586l-3.2-3.2a.5.5,0,0,1,.707-.707l3.2,3.2a1.025,1.025,0,0,0,1.414,0,1,1,0,0,0,0-1.414l-2.49-2.49a.5.5,0,1,1,.707-.707l2.49,2.49a2,2,0,0,1-1.415,3.414Z" transform="translate(-2.863 -9.616)"/>
  <path id="Path_11674" data-name="Path 11674" d="M38.01,50.14a1.992,1.992,0,0,1-1.414-.584l-3.2-3.2a.5.5,0,0,1,.707-.707l3.2,3.2a1,1,0,0,0,1.415-1.415l-2.49-2.489a.5.5,0,0,1,.707-.707l2.49,2.489A2,2,0,0,1,38.01,50.14Z" transform="translate(-2.863 -9.616)"/>
  <path id="Path_11675" data-name="Path 11675" d="M40.132,48.02a1.983,1.983,0,0,1-1.414-.586l-3.2-3.2a.5.5,0,0,1,.707-.707l3.2,3.2a1.023,1.023,0,0,0,1.414,0,1,1,0,0,0,0-1.414l-8.146-8.146a.5.5,0,1,1,.707-.707l8.146,8.146a2,2,0,0,1-1.414,3.414ZM16.775,34.769a1.5,1.5,0,1,1,1.061-.438h0A1.5,1.5,0,0,1,16.775,34.769Zm.707-.792h0Zm-.707-1.207a.5.5,0,1,0,.354.146A.5.5,0,0,0,16.775,32.77ZM47.2,38.741a.5.5,0,0,1-.354-.146L37.657,29.4a.5.5,0,0,1,0-.708L47.2,19.149a.5.5,0,1,1,.707.707l-9.192,9.192L47.2,37.533l9.192-9.192a.5.5,0,0,1,.707.707l-9.546,9.545A.494.494,0,0,1,47.2,38.741Z" transform="translate(-2.863 -9.616)"/>
  <path id="Path_11676" data-name="Path 11676" d="M51.445,34.5a.5.5,0,0,1-.354-.146L41.9,25.161a.5.5,0,0,1,0-.707l9.192-9.192a.5.5,0,0,1,.707,0l9.192,9.192a.5.5,0,0,1,0,.707L51.8,34.353A.5.5,0,0,1,51.445,34.5ZM42.96,24.807l8.485,8.485,8.485-8.485-8.485-8.485Zm1.429,15.334a.5.5,0,0,1-.354-.146l-7.778-7.778a.5.5,0,0,1,0-.708l2.122-2.121a.5.5,0,0,1,.707,0l7.778,7.778a.5.5,0,0,1,0,.707l-2.121,2.121A.5.5,0,0,1,44.389,40.141Zm-7.071-8.278,7.071,7.071L45.8,37.52l-7.071-7.071Z" transform="translate(-2.863 -9.616)"/>
  <path id="Path_11677" data-name="Path 11677" d="M40.839,45.1a.5.5,0,0,1-.354-.853l3.536-3.535a.5.5,0,0,0,0-.707L36.6,32.585l-1.061,1.061a.5.5,0,0,1-.354.146H32.559l-4.8,4.8a.5.5,0,1,1-.707-.707L32,32.938a.5.5,0,0,1,.354-.146h2.622l1.268-1.268a.514.514,0,0,1,.707,0L44.729,39.3a1.5,1.5,0,0,1,0,2.122L41.193,44.96A.5.5,0,0,1,40.839,45.1Zm6.386-9.629a1.5,1.5,0,0,1-1.061-.438h0a1.505,1.505,0,1,1,1.061.438Zm-.354-1.146a.5.5,0,1,0,0-.707A.5.5,0,0,0,46.871,34.33Z" transform="translate(-2.863 -9.616)"/>
  <path id="Path_11678" data-name="Path 11678" d="M29.51,39.6a3.477,3.477,0,0,1-2.475-1.025.5.5,0,0,1,.707-.707,2.56,2.56,0,0,0,3.536,0L33.4,35.752a.5.5,0,0,1,.707.707L31.985,38.58A3.477,3.477,0,0,1,29.51,39.6ZM43.5,23.672a.5.5,0,0,1-.5-.5V17.045L32,10.694,21,17.045v5.808a.5.5,0,1,1-1,0v-6.1a.5.5,0,0,1,.25-.433l11.5-6.64a.5.5,0,0,1,.5,0l11.5,6.64a.5.5,0,0,1,.25.433v6.416A.5.5,0,0,1,43.5,23.672Z" transform="translate(-2.863 -9.616)"/>
  <g id="Group_4244" data-name="Group 4244" transform="translate(17.168 6.719)">
    <path id="Path_11679" data-name="Path 11679" d="M26.525,20.8a.494.494,0,0,1-.25-.067l-5.994-3.46a.5.5,0,1,1,.5-.866l5.994,3.46a.5.5,0,0,1-.25.933Z" transform="translate(-20.031 -16.336)"/>
  </g>
  <g id="Group_4245" data-name="Group 4245" transform="translate(34.109 6.639)">
    <path id="Path_11680" data-name="Path 11680" d="M37.473,20.674a.5.5,0,0,1-.251-.933l5.921-3.418a.5.5,0,0,1,.5.866l-5.921,3.418A.488.488,0,0,1,37.473,20.674Z" transform="translate(-36.972 -16.255)"/>
  </g>
  <g id="Group_4246" data-name="Group 4246" transform="translate(28.637 6.994)">
    <path id="Path_11681" data-name="Path 11681" d="M32,30.2a.5.5,0,0,1-.5-.5V17.11a.5.5,0,0,1,1,0V29.7A.5.5,0,0,1,32,30.2Z" transform="translate(-31.5 -16.61)"/>
  </g>
  <g id="Group_4247" data-name="Group 4247" transform="translate(25.9 9.181)">
    <path id="Path_11682" data-name="Path 11682" d="M32.86,23.633H31.2a2.418,2.418,0,1,1,0-4.836h3.523a.5.5,0,0,1,0,1H31.2a1.418,1.418,0,1,0,0,2.836h1.66a.5.5,0,0,1,0,1Z" transform="translate(-28.763 -18.797)"/>
  </g>
  <g id="Group_4248" data-name="Group 4248" transform="translate(25.901 13.017)">
    <path id="Path_11683" data-name="Path 11683" d="M32.812,27.458H29.264a.5.5,0,0,1,0-1h3.548a1.413,1.413,0,0,0,0-2.825H31.719a.5.5,0,0,1,0-1h1.093a2.413,2.413,0,0,1,0,4.825Z" transform="translate(-28.764 -22.633)"/>
  </g>
  <g id="Group_4249" data-name="Group 4249" transform="translate(27.637 3.056)">
    <path id="Path_11684" data-name="Path 11684" d="M32,15.672a1.5,1.5,0,1,1,1.5-1.5A1.5,1.5,0,0,1,32,15.672Zm0-2a.5.5,0,1,0,.5.5A.5.5,0,0,0,32,13.672Z" transform="translate(-30.5 -12.672)"/>
  </g>
  <g id="Group_4250" data-name="Group 4250" transform="translate(20.158 15.056)">
    <circle id="Ellipse_4" data-name="Ellipse 4" cx="0.5" cy="0.5" r="0.5"/>
  </g>
  <g id="Group_4251" data-name="Group 4251" transform="translate(37.158 15.056)">
    <circle id="Ellipse_5" data-name="Ellipse 5" cx="0.5" cy="0.5" r="0.5"/>
  </g>
  <g id="Group_4252" data-name="Group 4252" transform="translate(20.158 13.056)">
    <circle id="Ellipse_6" data-name="Ellipse 6" cx="0.5" cy="0.5" r="0.5"/>
  </g>
  <g id="Group_4253" data-name="Group 4253" transform="translate(20.158 11.056)">
    <circle id="Ellipse_7" data-name="Ellipse 7" cx="0.5" cy="0.5" r="0.5"/>
  </g>
  <g id="Group_4254" data-name="Group 4254" transform="translate(37.158 13.056)">
    <circle id="Ellipse_8" data-name="Ellipse 8" cx="0.5" cy="0.5" r="0.5"/>
  </g>
  <g id="Group_4255" data-name="Group 4255" transform="translate(37.158 11.056)">
    <circle id="Ellipse_9" data-name="Ellipse 9" cx="0.5" cy="0.5" r="0.5"/>
  </g>
  <g id="Group_4256" data-name="Group 4256" transform="translate(22.24 7.006)">
    <circle id="Ellipse_10" data-name="Ellipse 10" cx="0.5" cy="0.5" r="0.5" transform="translate(0 0.499) rotate(-29.939)"/>
  </g>
  <g id="Group_4257" data-name="Group 4257" transform="translate(23.973 6.007)">
    <circle id="Ellipse_11" data-name="Ellipse 11" cx="0.5" cy="0.5" r="0.5" transform="translate(0 0.499) rotate(-29.939)"/>
  </g>
  <g id="Group_4258" data-name="Group 4258" transform="translate(25.705 5.008)">
    <circle id="Ellipse_12" data-name="Ellipse 12" cx="0.5" cy="0.5" r="0.5" transform="translate(0 0.499) rotate(-29.939)"/>
  </g>
  <g id="Group_4259" data-name="Group 4259" transform="translate(34.679 7.004)">
    <circle id="Ellipse_13" data-name="Ellipse 13" cx="0.5" cy="0.5" r="0.5" transform="translate(0 0.867) rotate(-60.061)"/>
  </g>
  <g id="Group_4260" data-name="Group 4260" transform="translate(32.946 6.005)">
    <circle id="Ellipse_14" data-name="Ellipse 14" cx="0.5" cy="0.5" r="0.5" transform="translate(0 0.867) rotate(-60.061)"/>
  </g>
  <g id="Group_4261" data-name="Group 4261" transform="translate(31.213 5.007)">
    <circle id="Ellipse_15" data-name="Ellipse 15" cx="0.5" cy="0.5" r="0.5" transform="translate(0 0.867) rotate(-60.061)"/>
  </g>
</svg>
