<svg id="Group_3753" data-name="Group 3753" xmlns="http://www.w3.org/2000/svg" width="44" height="60" viewBox="0 0 44 60">
  <path id="Path_175" data-name="Path 175" d="M53.987,49.063c0-.022.013-.041.013-.063V5a3,3,0,0,0-3-3H13a3,3,0,0,0-3,3V59a3,3,0,0,0,3,3H41a1,1,0,0,0,.707-.293l12-12a1,1,0,0,0,.2-.293c.014-.031.022-.062.033-.094A.945.945,0,0,0,53.987,49.063ZM12,59V5a1,1,0,0,1,1-1H51a1,1,0,0,1,1,1V48H43a3,3,0,0,0-3,3v9H13A1,1,0,0,1,12,59Zm30-.414V51a1,1,0,0,1,1-1h7.586Z" transform="translate(-10 -2)"/>
  <path id="Path_176" data-name="Path 176" d="M23,22H19a1,1,0,0,1-1-1,1,1,0,0,0-2,0,3,3,0,0,0,3,3h1v1a1,1,0,0,0,2,0V24h1a3,3,0,0,0,3-3V19a3,3,0,0,0-3-3H19a1,1,0,0,1-1-1V13a1,1,0,0,1,1-1h4a1,1,0,0,1,1,1,1,1,0,0,0,2,0,3,3,0,0,0-3-3H22V9a1,1,0,0,0-2,0v1H19a3,3,0,0,0-3,3v2a3,3,0,0,0,3,3h4a1,1,0,0,1,1,1v2A1,1,0,0,1,23,22Zm8-9H47a1,1,0,0,0,0-2H31a1,1,0,0,0,0,2Zm0,8H47a1,1,0,0,0,0-2H31a1,1,0,0,0,0,2Zm0,8H47a1,1,0,0,0,0-2H31a1,1,0,0,0,0,2ZM17,37H47a1,1,0,0,0,0-2H17a1,1,0,0,0,0,2Zm30,8a1,1,0,0,0,0-2H17a1,1,0,0,0,0,2Z" transform="translate(-10 -2)"/>
</svg>
