<svg xmlns="http://www.w3.org/2000/svg" width="45" height="65.455" viewBox="0 0 45 65.455">
  <path id="ee47538cf3b5865ca347bca87575e6bd" d="M44.886,10.227H39.668a5.114,5.114,0,0,0-5.009-4.091H33.636a6.136,6.136,0,0,0-12.273,0H20.341a5.113,5.113,0,0,0-5.009,4.09H10.114A5.114,5.114,0,0,0,5,15.341v45a5.114,5.114,0,0,0,5.114,5.114H44.886A5.114,5.114,0,0,0,50,60.341v-45A5.114,5.114,0,0,0,44.886,10.227ZM20.341,8.182h2.045a1.023,1.023,0,0,0,1.023-1.023V6.136a4.091,4.091,0,0,1,8.182,0V7.159a1.023,1.023,0,0,0,1.023,1.023h2.045a3.068,3.068,0,0,1,0,6.136H20.341a3.068,3.068,0,1,1,0-6.136ZM47.955,60.341a3.068,3.068,0,0,1-3.068,3.068H10.114a3.068,3.068,0,0,1-3.068-3.068v-45a3.068,3.068,0,0,1,3.068-3.068h5.218a5.114,5.114,0,0,0,5.009,4.091H34.659a5.113,5.113,0,0,0,5.009-4.09h5.218a3.068,3.068,0,0,1,3.068,3.068ZM14.2,40.909h8.182a3.068,3.068,0,0,0,3.068-3.068V35.8a1.023,1.023,0,1,0-2.045,0v2.045a1.023,1.023,0,0,1-1.023,1.023H14.2a1.023,1.023,0,0,1-1.023-1.023V29.659A1.023,1.023,0,0,1,14.2,28.636h8.182a1.023,1.023,0,0,0,0-2.045H14.2a3.068,3.068,0,0,0-3.068,3.068v8.182A3.068,3.068,0,0,0,14.2,40.909Zm11.622-13-6.509,6.509L16.9,32a1.023,1.023,0,1,0-1.446,1.446l3.142,3.14a1.023,1.023,0,0,0,1.446,0l7.233-7.231a1.023,1.023,0,1,0-1.446-1.446Zm-1.395,25.27A1.023,1.023,0,0,0,23.409,54.2V56.25a1.023,1.023,0,0,1-1.023,1.023H14.2a1.023,1.023,0,0,1-1.023-1.023V48.068A1.023,1.023,0,0,1,14.2,47.045h8.182a1.023,1.023,0,1,0,0-2.045H14.2a3.068,3.068,0,0,0-3.068,3.068V56.25A3.068,3.068,0,0,0,14.2,59.318h8.182a3.068,3.068,0,0,0,3.068-3.068V54.2A1.023,1.023,0,0,0,24.432,53.182Zm1.395-6.86L19.318,52.83,16.9,50.412a1.023,1.023,0,1,0-1.446,1.446L18.6,55a1.023,1.023,0,0,0,1.446,0l7.233-7.231a1.023,1.023,0,1,0-1.446-1.446ZM20.341,22.5H32.614a1.023,1.023,0,1,0,0-2.045H20.341a1.023,1.023,0,0,0,0,2.045Zm22.5,8.182H30.568a1.023,1.023,0,1,0,0,2.045H42.841a1.023,1.023,0,1,0,0-2.045Zm0,4.091H30.568a1.023,1.023,0,0,0,0,2.046H42.841a1.023,1.023,0,0,0,0-2.046Zm0,14.318H30.568a1.023,1.023,0,0,0,0,2.045H42.841a1.023,1.023,0,0,0,0-2.045Zm0,4.091H30.568a1.023,1.023,0,0,0,0,2.045H42.841a1.023,1.023,0,0,0,0-2.045Z" transform="translate(-5)"/>
</svg>
