<svg xmlns="http://www.w3.org/2000/svg" width="42.803" height="41.471" viewBox="0 0 42.803 41.471">
  <path id="_5b4ed0a43cbeb3e04c268e068bb0adc1" data-name="5b4ed0a43cbeb3e04c268e068bb0adc1" d="M38.79,34.459v-.686a.641.641,0,0,0-.031-.155,4.663,4.663,0,0,0-1.976-8.471V16.384a2.006,2.006,0,0,0-2.006-2.006h-6.7a4.169,4.169,0,0,0-4-4V9.7a.641.641,0,0,0-.031-.155,4.682,4.682,0,1,0-5.288,0,.641.641,0,0,0-.032.155v.686a4.169,4.169,0,0,0-4,4h-6.7a2.006,2.006,0,0,0-2.006,2.006v8.763a4.663,4.663,0,0,0-1.976,8.471.641.641,0,0,0-.031.155v.686A4.177,4.177,0,0,0,0,38.621v1.839a2.006,2.006,0,0,0,2.006,2.006H11.37a2.006,2.006,0,0,0,2.006-2.006V38.621a4.177,4.177,0,0,0-4.013-4.163v-.686a.641.641,0,0,0-.031-.155,4.663,4.663,0,0,0-1.976-8.471V16.384a.669.669,0,0,1,.669-.669h6.688v.669A2.006,2.006,0,0,0,16.72,18.39h4.013v6.756a4.663,4.663,0,0,0-1.976,8.471.641.641,0,0,0-.031.155v.686a4.177,4.177,0,0,0-4.013,4.163v1.839a2.006,2.006,0,0,0,2.006,2.006h9.363a2.006,2.006,0,0,0,2.006-2.006V38.621a4.177,4.177,0,0,0-4.013-4.163v-.686a.641.641,0,0,0-.031-.155,4.663,4.663,0,0,0-1.976-8.471V18.39h4.013a2.006,2.006,0,0,0,2.006-2.006v-.669h6.688a.669.669,0,0,1,.669.669v8.763a4.663,4.663,0,0,0-1.976,8.471.641.641,0,0,0-.031.155v.686a4.177,4.177,0,0,0-4.013,4.163v1.839a2.006,2.006,0,0,0,2.006,2.006H40.8A2.006,2.006,0,0,0,42.8,40.461V38.621a4.177,4.177,0,0,0-4.013-4.163ZM12.038,38.621v1.839a.669.669,0,0,1-.669.669H2.006a.669.669,0,0,1-.669-.669V38.621A2.845,2.845,0,0,1,4.18,35.779h.2a2.651,2.651,0,0,0,4.627-.037.649.649,0,0,0,.185.037,2.845,2.845,0,0,1,2.842,2.842ZM5.35,34.441v-.218a4.615,4.615,0,0,0,1.338.218,4.615,4.615,0,0,0,1.338-.218v.218a1.338,1.338,0,0,1-2.675,0Zm4.682-4.668a3.344,3.344,0,1,1-6.688,0,.657.657,0,0,0,.154-.029l2.12-.853a1.626,1.626,0,0,1,1.053-.056l3.28.936a.626.626,0,0,0,.082,0ZM9.684,28.3l-2.652-.754a2.991,2.991,0,0,0-1.919.1L3.745,28.2a3.317,3.317,0,0,1,5.935.1ZM21.4,2.339A3.344,3.344,0,0,1,24.4,4.225l-2.652-.754a2.983,2.983,0,0,0-1.919.1l-1.366.551A3.333,3.333,0,0,1,21.4,2.339ZM18.058,5.7a.657.657,0,0,0,.154-.029l2.12-.853a1.618,1.618,0,0,1,1.053-.056l3.28.936a.638.638,0,0,0,.086.007,3.344,3.344,0,1,1-6.688,0Zm4.682,4.45v.218a1.338,1.338,0,0,1-2.675,0v-.218a4.207,4.207,0,0,0,2.675,0Zm4.013,28.475v1.839a.669.669,0,0,1-.669.669H16.72a.669.669,0,0,1-.669-.669V38.621a2.845,2.845,0,0,1,2.842-2.842h.2a2.651,2.651,0,0,0,4.627-.037.649.649,0,0,0,.185.037,2.845,2.845,0,0,1,2.842,2.842Zm-6.688-4.18v-.218a4.207,4.207,0,0,0,2.675,0v.218a1.338,1.338,0,0,1-2.675,0Zm4.682-4.668a3.344,3.344,0,1,1-6.688,0,.657.657,0,0,0,.154-.029l2.12-.853a1.626,1.626,0,0,1,1.053-.056l3.28.936a.626.626,0,0,0,.082,0ZM24.4,28.3l-2.652-.754a2.991,2.991,0,0,0-1.919.1l-1.363.55a3.317,3.317,0,0,1,5.935.1Zm2.354-11.918a.669.669,0,0,1-.669.669H16.72a.669.669,0,0,1-.669-.669V14.545A2.845,2.845,0,0,1,18.894,11.7h.2a2.651,2.651,0,0,0,4.627-.037.649.649,0,0,0,.185.037,2.845,2.845,0,0,1,2.842,2.842Zm9.363,10.032A3.344,3.344,0,0,1,39.11,28.3l-2.652-.754a2.991,2.991,0,0,0-1.919.1l-1.363.55a3.333,3.333,0,0,1,2.94-1.783Zm-3.344,3.357a.657.657,0,0,0,.154-.029l2.12-.853a1.626,1.626,0,0,1,1.053-.056l3.28.936a.624.624,0,0,0,.086.007,3.344,3.344,0,0,1-6.688,0Zm4.682,4.45v.218a1.338,1.338,0,0,1-2.675,0v-.218a4.207,4.207,0,0,0,2.675,0Zm4.013,6.237a.669.669,0,0,1-.669.669H31.434a.669.669,0,0,1-.669-.669V38.621a2.845,2.845,0,0,1,2.842-2.842h.2a2.651,2.651,0,0,0,4.627-.037.649.649,0,0,0,.185.037,2.845,2.845,0,0,1,2.842,2.842Z" transform="translate(0 -0.995)"/>
</svg>
