<svg xmlns="http://www.w3.org/2000/svg" width="32.795" height="33.559" viewBox="0 0 32.795 33.559">
  <path id="_209891d289ad4029a7de2d04b4620972" data-name="209891d289ad4029a7de2d04b4620972" d="M32.89,9.843A16.412,16.412,0,0,0,12.244,7.919l-.018-2.444a.745.745,0,0,0-.751-.739l-1.489.012a.745.745,0,0,0-.739.75l.041,5.575a1.489,1.489,0,0,0,1.49,1.478h.012l5.575-.041a.745.745,0,0,0,.739-.751l-.012-1.49a.745.745,0,0,0-.75-.739l-.948.007A13.4,13.4,0,0,1,33.631,26.983a.737.737,0,0,0,.325.968l1.329.679a.756.756,0,0,0,1.028-.348A16.33,16.33,0,0,0,32.89,9.843ZM32,30.48H31.99l-5.575.041a.745.745,0,0,0-.739.751l.012,1.49a.745.745,0,0,0,.75.739l.947-.007A13.4,13.4,0,0,1,9.148,16.047a.737.737,0,0,0-.325-.968L7.493,14.4a.756.756,0,0,0-1.028.348A16.389,16.389,0,0,0,30.535,35.109l.018,2.446a.745.745,0,0,0,.751.739l1.489-.012a.745.745,0,0,0,.739-.75l-.041-5.575A1.488,1.488,0,0,0,32,30.48Z" transform="translate(-4.992 -4.735)" fill="#333"/>
</svg>
