<svg xmlns="http://www.w3.org/2000/svg" width="17.999" height="17.999" viewBox="0 0 17.999 17.999"><path d="M17.5,5,15.884,6.619a.422.422,0,0,1-.6,0l-3.9-3.9a.422.422,0,0,1,0-.6L13,.5a1.691,1.691,0,0,1,2.387,0L17.5,2.611A1.685,1.685,0,0,1,17.5,5ZM9.992,3.511.76,12.743.015,17.014a.845.845,0,0,0,.977.977l4.271-.749L14.5,8.011a.422.422,0,0,0,0-.6l-3.9-3.9a.426.426,0,0,0-.6,0ZM4.364,11.952a.49.49,0,0,1,0-.7L9.777,5.842a.492.492,0,0,1,.7.7L5.06,11.952a.49.49,0,0,1-.7,0ZM3.094,14.908H4.782v1.276l-2.267.4L1.421,15.488l.4-2.267H3.094Z" transform="translate(-0.002 -0.005)" fill="#0089d0"/></svg>