<svg xmlns="http://www.w3.org/2000/svg" width="35" height="34.989" viewBox="0 0 35 34.989"><path d="M49.43,42.287H34.875c-.528,0-1.059,0-1.587,0a1.823,1.823,0,0,0-.963.241,2.8,2.8,0,0,0-.436.354c-.2.195-.4.386-.6.581Q30.125,44.6,28.96,45.737q-1.35,1.312-2.7,2.625l-1.622,1.58c-.035.035-.071.071-.106.1l.358-.276a.615.615,0,0,1-.138.081c.142-.06.283-.12.422-.177a.626.626,0,0,1-.11.028l.471-.064a.7.7,0,0,1-.149,0l.471.064a.937.937,0,0,1-.142-.043c.142.06.283.12.422.177a.85.85,0,0,1-.1-.057l.358.276a.753.753,0,0,1-.106-.106c.092.12.184.237.276.358a.9.9,0,0,1-.057-.1c.06.142.12.283.177.422a.631.631,0,0,1-.032-.117c.021.156.043.315.064.471a6.262,6.262,0,0,1-.007-.73v-6.2a1.8,1.8,0,0,0-1.771-1.771H22a5.047,5.047,0,0,1-.567-.014l.471.064a2.071,2.071,0,0,1-.457-.12c.142.06.283.12.422.177a2.027,2.027,0,0,1-.439-.255l.358.276a1.982,1.982,0,0,1-.322-.322c.092.12.184.237.276.358a2,2,0,0,1-.255-.439c.06.142.12.283.177.422a2.021,2.021,0,0,1-.12-.457c.021.156.043.315.064.471a6.564,6.564,0,0,1-.014-.747V24.257c0-.808-.007-1.612,0-2.419,0-.089.007-.177.014-.266-.021.156-.043.315-.064.471a2.071,2.071,0,0,1,.12-.457c-.06.142-.12.283-.177.422a2.027,2.027,0,0,1,.255-.439c-.092.12-.184.237-.276.358a1.982,1.982,0,0,1,.322-.322l-.358.276a2,2,0,0,1,.439-.255c-.142.06-.283.12-.422.177a2.021,2.021,0,0,1,.457-.12l-.471.064a8.289,8.289,0,0,1,.939-.014H49.4a2.406,2.406,0,0,1,.276.014l-.471-.064a2.071,2.071,0,0,1,.457.12c-.142-.06-.283-.12-.422-.177a2.027,2.027,0,0,1,.439.255l-.358-.276a1.982,1.982,0,0,1,.322.322c-.092-.12-.184-.237-.276-.358a2,2,0,0,1,.255.439c-.06-.142-.12-.283-.177-.422a2.021,2.021,0,0,1,.12.457c-.021-.156-.043-.315-.064-.471a6.565,6.565,0,0,1,.014.747V39.758c0,.808.007,1.612,0,2.419,0,.089-.007.177-.014.266.021-.156.043-.315.064-.471a2.071,2.071,0,0,1-.12.457c.06-.142.12-.283.177-.422a2.027,2.027,0,0,1-.255.439c.092-.12.184-.237.276-.358a1.982,1.982,0,0,1-.322.322l.358-.276a2,2,0,0,1-.439.255c.142-.06.283-.12.422-.177a2.021,2.021,0,0,1-.457.12l.471-.064a2.042,2.042,0,0,1-.248.018,1.86,1.86,0,0,0-1.254.517,1.779,1.779,0,0,0,0,2.508,1.821,1.821,0,0,0,1.254.517,3.81,3.81,0,0,0,1.739-.446,3.677,3.677,0,0,0,1.279-1.18,3.552,3.552,0,0,0,.606-2.008c0-.22,0-.439,0-.659V21.962a3.642,3.642,0,0,0-1.233-2.851,3.585,3.585,0,0,0-1.559-.811,4.806,4.806,0,0,0-.84-.1H21.978a5.326,5.326,0,0,0-1.155.1,3.551,3.551,0,0,0-2.359,1.863,3.9,3.9,0,0,0-.407,1.7c0,.779,0,1.562,0,2.341V42.128a3.652,3.652,0,0,0,1.9,3.273,4.127,4.127,0,0,0,1.9.436h3.082l-1.771-1.771v5.962a3.716,3.716,0,0,0,.337,2.072,2.274,2.274,0,0,0,2.023,1.084,2.444,2.444,0,0,0,1.541-.666c.071-.067.142-.138.213-.205.383-.372.762-.744,1.144-1.112q1.8-1.759,3.606-3.514c.8-.776,1.6-1.544,2.391-2.331l.039-.039c-.418.174-.836.347-1.254.517H47.432c.655,0,1.311.011,1.966,0h.028a1.844,1.844,0,0,0,1.254-.517,1.779,1.779,0,0,0,0-2.508A1.823,1.823,0,0,0,49.43,42.287Z" transform="translate(-18.055 -18.2)" fill="rgba(117,117,117,0.5)"/></svg>